<?xml version="1.0" encoding="UTF-8" standalone="no"?>
<!-- Created with Inkscape (http://www.inkscape.org/) -->

<svg
   xmlns:dc="http://purl.org/dc/elements/1.1/"
   xmlns:cc="http://creativecommons.org/ns#"
   xmlns:rdf="http://www.w3.org/1999/02/22-rdf-syntax-ns#"
   xmlns:svg="http://www.w3.org/2000/svg"
   xmlns="http://www.w3.org/2000/svg"
   xmlns:xlink="http://www.w3.org/1999/xlink"
   xmlns:sodipodi="http://sodipodi.sourceforge.net/DTD/sodipodi-0.dtd"
   xmlns:inkscape="http://www.inkscape.org/namespaces/inkscape"
   width="128"
   height="128"
   id="svg1307"
   sodipodi:version="0.32"
   inkscape:version="0.46+devel"
   version="1.0"
   sodipodi:docname="metapackage-installer.svg"
   inkscape:output_extension="org.inkscape.output.svg.inkscape">
  <defs
     id="defs1309">
    <linearGradient
       inkscape:collect="always"
       id="linearGradient3654">
      <stop
         style="stop-color:white;stop-opacity:1;"
         offset="0"
         id="stop3656" />
      <stop
         style="stop-color:white;stop-opacity:0;"
         offset="1"
         id="stop3658" />
    </linearGradient>
    <linearGradient
       inkscape:collect="always"
       id="linearGradient3272">
      <stop
         style="stop-color:white;stop-opacity:1;"
         offset="0"
         id="stop3274" />
      <stop
         style="stop-color:white;stop-opacity:0;"
         offset="1"
         id="stop3276" />
    </linearGradient>
    <linearGradient
       inkscape:collect="always"
       id="linearGradient3194">
      <stop
         style="stop-color:#967239;stop-opacity:1;"
         offset="0"
         id="stop3196" />
      <stop
         style="stop-color:#967239;stop-opacity:0;"
         offset="1"
         id="stop3198" />
    </linearGradient>
    <linearGradient
       id="linearGradient2257">
      <stop
         id="stop2259"
         offset="0"
         style="stop-color:#8f6b32;stop-opacity:1;" />
      <stop
         id="stop2261"
         offset="1"
         style="stop-color:#debc85;stop-opacity:1;" />
    </linearGradient>
    <linearGradient
       inkscape:collect="always"
       xlink:href="#linearGradient2257"
       id="linearGradient3174"
       x1="63.109283"
       y1="123.58058"
       x2="42.708179"
       y2="36.313725"
       gradientUnits="userSpaceOnUse"
       gradientTransform="matrix(1.1747825,0,0,1.3531256,-15.255189,-60.313959)" />
    <linearGradient
       inkscape:collect="always"
       xlink:href="#linearGradient3194"
       id="linearGradient3200"
       x1="61.060928"
       y1="67.373436"
       x2="61.060928"
       y2="84.336159"
       gradientUnits="userSpaceOnUse"
       gradientTransform="matrix(1.1747825,0,0,1.3531256,-15.255189,-60.313959)" />
    <linearGradient
       inkscape:collect="always"
       xlink:href="#linearGradient2257"
       id="linearGradient3202"
       gradientUnits="userSpaceOnUse"
       gradientTransform="matrix(1.1747825,0,0,0.4030385,-15.255189,-15.030253)"
       x1="76.601013"
       y1="165.6929"
       x2="37.203804"
       y2="33.424469" />
    <linearGradient
       inkscape:collect="always"
       xlink:href="#linearGradient3272"
       id="linearGradient3278"
       x1="106.37579"
       y1="-8.5763578"
       x2="21.697437"
       y2="138.35936"
       gradientUnits="userSpaceOnUse" />
    <linearGradient
       inkscape:collect="always"
       xlink:href="#linearGradient3272"
       id="linearGradient3280"
       gradientUnits="userSpaceOnUse"
       x1="106.37579"
       y1="-8.5763578"
       x2="21.697437"
       y2="138.35936" />
    <linearGradient
       inkscape:collect="always"
       xlink:href="#linearGradient3272"
       id="linearGradient3282"
       gradientUnits="userSpaceOnUse"
       x1="106.37579"
       y1="-8.5763578"
       x2="21.697437"
       y2="138.35936" />
    <linearGradient
       inkscape:collect="always"
       xlink:href="#linearGradient3272"
       id="linearGradient3284"
       gradientUnits="userSpaceOnUse"
       x1="106.37579"
       y1="-8.5763578"
       x2="21.697437"
       y2="138.35936" />
    <linearGradient
       inkscape:collect="always"
       xlink:href="#linearGradient3272"
       id="linearGradient3286"
       gradientUnits="userSpaceOnUse"
       x1="106.37579"
       y1="-8.5763578"
       x2="21.697437"
       y2="138.35936" />
    <linearGradient
       inkscape:collect="always"
       xlink:href="#linearGradient3272"
       id="linearGradient3288"
       gradientUnits="userSpaceOnUse"
       x1="106.37579"
       y1="-8.5763578"
       x2="21.697437"
       y2="138.35936" />
    <linearGradient
       inkscape:collect="always"
       xlink:href="#linearGradient3272"
       id="linearGradient3290"
       gradientUnits="userSpaceOnUse"
       x1="106.37579"
       y1="-8.5763578"
       x2="21.697437"
       y2="138.35936" />
    <linearGradient
       inkscape:collect="always"
       xlink:href="#linearGradient3272"
       id="linearGradient3292"
       gradientUnits="userSpaceOnUse"
       x1="106.37579"
       y1="-8.5763578"
       x2="21.697437"
       y2="138.35936" />
    <linearGradient
       inkscape:collect="always"
       xlink:href="#linearGradient3654"
       id="linearGradient3660"
       x1="112.39521"
       y1="52.859375"
       x2="103.28125"
       y2="59.734375"
       gradientUnits="userSpaceOnUse"
       gradientTransform="matrix(1.1716331,0,0,1.3494982,-16.871891,-62.574614)" />
    <linearGradient
       inkscape:collect="always"
       xlink:href="#linearGradient3654"
       id="linearGradient3662"
       x1="119.58964"
       y1="42.13184"
       x2="103.77021"
       y2="63.31934"
       gradientUnits="userSpaceOnUse"
       gradientTransform="matrix(1.1716331,0,0,1.3494982,-16.871891,-62.574614)" />
    <linearGradient
       id="linearGradient3291"
       inkscape:collect="always">
      <stop
         id="stop3293"
         offset="0"
         style="stop-color:#000000;stop-opacity:1;" />
      <stop
         id="stop3295"
         offset="1"
         style="stop-color:#000000;stop-opacity:0;" />
    </linearGradient>
    <radialGradient
       inkscape:collect="always"
       xlink:href="#linearGradient3291"
       id="radialGradient4000"
       gradientUnits="userSpaceOnUse"
       gradientTransform="matrix(1,0,0,0.197802,0,92.82166)"
       cx="63.912209"
       cy="115.70919"
       fx="63.912209"
       fy="115.7093"
       r="63.912209" />
    <radialGradient
       inkscape:collect="always"
       xlink:href="#linearGradient3291"
       id="radialGradient4024"
       gradientUnits="userSpaceOnUse"
       gradientTransform="matrix(1,0,0,0.197802,0,92.82166)"
       cx="63.912209"
       cy="115.70919"
       fx="63.912209"
       fy="115.7093"
       r="63.912209" />
    <linearGradient
       id="linearGradient5958"
       gradientUnits="userSpaceOnUse"
       x1="-84.002403"
       y1="-383.9971"
       x2="-12.0029"
       y2="-383.9971"
       gradientTransform="matrix(0,1,-1,0,-39.9985,140.0029)">
      <stop
         offset="0"
         style="stop-color:#008c00;stop-opacity:1"
         id="stop5960" />
      <stop
         offset="1"
         style="stop-color:#00bf00;stop-opacity:1"
         id="stop5962" />
    </linearGradient>
    <linearGradient
       id="linearGradient4770"
       gradientUnits="userSpaceOnUse"
       x1="-84.002403"
       y1="-383.9971"
       x2="-12.0029"
       y2="-383.9971"
       gradientTransform="matrix(0,1,-1,0,-39.9985,140.0029)">
      <stop
         offset="0"
         style="stop-color:#e5ff00;stop-opacity:1"
         id="stop4772" />
      <stop
         offset="1"
         style="stop-color:#bff500;stop-opacity:0;"
         id="stop4774" />
    </linearGradient>
    <linearGradient
       id="linearGradient4296">
      <stop
         style="stop-color:#00ff00;stop-opacity:1"
         offset="0"
         id="stop4298" />
      <stop
         style="stop-color:#006500;stop-opacity:1"
         offset="1"
         id="stop4300" />
    </linearGradient>
    <clipPath
       id="clipPath5163"
       clipPathUnits="userSpaceOnUse">
      <circle
         id="circle5165"
         ry="8.0010004"
         cy="92"
         cx="343.99899"
         rx="8.0010004"
         r="36"
         style="fill:url(#linearGradient5167);fill-opacity:1"
         sodipodi:cx="343.99899"
         sodipodi:cy="92"
         sodipodi:rx="36"
         sodipodi:ry="36" />
    </clipPath>
    <linearGradient
       id="linearGradient3711"
       gradientUnits="userSpaceOnUse"
       x1="-84.002403"
       y1="-383.9971"
       x2="-23.516129"
       y2="-383.9975"
       gradientTransform="matrix(0,1,-1,0,-39.9985,140.0029)">
      <stop
         offset="0"
         style="stop-color:white;stop-opacity:1;"
         id="stop3713" />
      <stop
         offset="1"
         style="stop-color:white;stop-opacity:0;"
         id="stop3715" />
    </linearGradient>
    <linearGradient
       id="linearGradient6740">
      <stop
         id="stop6742"
         offset="0"
         style="stop-color:#004d00;stop-opacity:0;" />
      <stop
         style="stop-color:#004d00;stop-opacity:1;"
         offset="0.5"
         id="stop6748" />
      <stop
         id="stop6744"
         offset="1"
         style="stop-color:#004d00;stop-opacity:0;" />
    </linearGradient>
    <filter
       inkscape:collect="always"
       id="filter5943">
      <feGaussianBlur
         inkscape:collect="always"
         stdDeviation="1.04"
         id="feGaussianBlur5945" />
    </filter>
    <filter
       inkscape:collect="always"
       id="filter7317">
      <feGaussianBlur
         inkscape:collect="always"
         stdDeviation="2.8805897"
         id="feGaussianBlur7319" />
    </filter>
    <filter
       inkscape:collect="always"
       id="filter4292">
      <feGaussianBlur
         inkscape:collect="always"
         stdDeviation="2.1604423"
         id="feGaussianBlur4294" />
    </filter>
    <linearGradient
       inkscape:collect="always"
       xlink:href="#linearGradient5958"
       id="linearGradient7438"
       gradientUnits="userSpaceOnUse"
       gradientTransform="matrix(0,1,-1,0,-39.9985,140.0029)"
       x1="-86.120354"
       y1="-381.09921"
       x2="-56.357521"
       y2="-373.1243" />
    <radialGradient
       inkscape:collect="always"
       xlink:href="#linearGradient4770"
       id="radialGradient7440"
       gradientUnits="userSpaceOnUse"
       cx="343.99899"
       cy="92"
       fx="343.99899"
       fy="92"
       r="36" />
    <linearGradient
       inkscape:collect="always"
       xlink:href="#linearGradient4296"
       id="linearGradient7442"
       gradientUnits="userSpaceOnUse"
       x1="328.12448"
       y1="120.81158"
       x2="336.98077"
       y2="87.759453" />
    <linearGradient
       inkscape:collect="always"
       xlink:href="#linearGradient3711"
       id="linearGradient7444"
       gradientUnits="userSpaceOnUse"
       gradientTransform="matrix(0,0.7388168,-0.7388168,0,-62.713314,210.21986)"
       x1="-80.00296"
       y1="-131.93112"
       x2="-45.096584"
       y2="-131.93112" />
    <linearGradient
       inkscape:collect="always"
       xlink:href="#linearGradient6740"
       id="linearGradient7446"
       gradientUnits="userSpaceOnUse"
       gradientTransform="translate(20.000035,-56.000003)"
       x1="102"
       y1="118"
       x2="102"
       y2="65.932846" />
  </defs>
  <sodipodi:namedview
     id="base"
     pagecolor="#ffffff"
     bordercolor="#666666"
     borderopacity="1.0"
     inkscape:pageopacity="0.0"
     inkscape:pageshadow="2"
     inkscape:zoom="1.9936483"
     inkscape:cx="104.49342"
     inkscape:cy="41.621868"
     inkscape:current-layer="layer1"
     showgrid="true"
     inkscape:document-units="px"
     inkscape:grid-bbox="true"
     guidetolerance="0.1px"
     showguides="false"
     inkscape:guide-bbox="true"
     inkscape:window-width="1106"
     inkscape:window-height="729"
     inkscape:window-x="0"
     inkscape:window-y="0">
    <sodipodi:guide
       orientation="horizontal"
       position="32.487481"
       id="guide2204" />
    <inkscape:grid
       type="xygrid"
       id="grid2770"
       empspacing="4" />
  </sodipodi:namedview>
  <metadata
     id="metadata1312">
    <rdf:RDF>
      <cc:Work
         rdf:about="">
        <dc:format>image/svg+xml</dc:format>
        <dc:type
           rdf:resource="http://purl.org/dc/dcmitype/StillImage" />
        <cc:license
           rdf:resource="http://creativecommons.org/licenses/GPL/2.0/" />
        <dc:contributor>
          <cc:Agent>
            <dc:title>Oxygen team</dc:title>
          </cc:Agent>
        </dc:contributor>
        <dc:title />
        <dc:date />
        <dc:creator>
          <cc:Agent>
            <dc:title />
          </cc:Agent>
        </dc:creator>
        <dc:rights>
          <cc:Agent>
            <dc:title />
          </cc:Agent>
        </dc:rights>
        <dc:publisher>
          <cc:Agent>
            <dc:title />
          </cc:Agent>
        </dc:publisher>
        <dc:identifier />
        <dc:source />
        <dc:relation />
        <dc:language />
        <dc:subject>
          <rdf:Bag />
        </dc:subject>
        <dc:coverage />
        <dc:description />
      </cc:Work>
      <cc:License
         rdf:about="http://creativecommons.org/licenses/LGPL/2.1/">
        <cc:permits
           rdf:resource="http://web.resource.org/cc/Reproduction" />
        <cc:permits
           rdf:resource="http://web.resource.org/cc/Distribution" />
        <cc:requires
           rdf:resource="http://web.resource.org/cc/Notice" />
        <cc:permits
           rdf:resource="http://web.resource.org/cc/DerivativeWorks" />
        <cc:requires
           rdf:resource="http://web.resource.org/cc/ShareAlike" />
        <cc:requires
           rdf:resource="http://web.resource.org/cc/SourceCode" />
      </cc:License>
    </rdf:RDF>
  </metadata>
  <g
     id="layer1"
     inkscape:label="Layer 1"
     inkscape:groupmode="layer">
    <path
       sodipodi:nodetypes="ccc"
       id="path2276"
       d="M 50.886452,2.912713 L 50.886452,0.51509042 L 50.886452,2.912713 z"
       style="fill:#ffffff;fill-opacity:0.75688076;fill-rule:nonzero;stroke:none;stroke-width:0.5;stroke-linecap:round;stroke-linejoin:round;stroke-miterlimit:4;stroke-dasharray:none;stroke-dashoffset:4;stroke-opacity:1" />
    <path
       sodipodi:nodetypes="ccc"
       id="path3206"
       d="M -68.609401,-83.348954 L -68.609401,-86.143663 L -68.609401,-83.348954 z "
       style="fill:white;fill-opacity:0.75688076;fill-rule:nonzero;stroke:none;stroke-width:0.5;stroke-linecap:round;stroke-linejoin:round;stroke-miterlimit:4;stroke-dasharray:none;stroke-dashoffset:4;stroke-opacity:1" />
    <g
       id="layer4"
       inkscape:label="box"
       style="display:inline"
       transform="translate(114.3422,61.23268)" />
    <g
       id="layer5"
       inkscape:label="zip_app"
       style="display:inline"
       transform="translate(114.3422,61.23268)" />
    <g
       id="g3343"
       transform="matrix(1.0457669,0,0,1.2780935,-6.9380076,-33.571833)">
      <path
         style="opacity:0.05"
         d="M 13.223,101.877 C 10.419,101.877 8.14,104.156 8.14,106.96 C 8.14,109.762 10.419,112.043 13.223,112.043 L 112.781,112.043 C 115.582,112.043 117.863,109.762 117.863,106.96 C 117.863,104.156 115.582,101.877 112.781,101.877 L 13.223,101.877 z"
         id="path3345" />
      <path
         style="opacity:0.1"
         d="M 13.223,102.893 C 10.979,102.893 9.156,104.716 9.156,106.96 C 9.156,109.202 10.979,111.027 13.223,111.027 L 112.781,111.027 C 115.023,111.027 116.847,109.202 116.847,106.96 C 116.847,104.716 115.023,102.893 112.781,102.893 L 13.223,102.893 z"
         id="path3347" />
      <path
         style="opacity:0.15"
         d="M 13.223,103.908 C 11.54,103.908 10.171,105.277 10.171,106.96 C 10.171,108.643 11.54,110.012 13.223,110.012 L 112.781,110.012 C 114.463,110.012 115.832,108.643 115.832,106.96 C 115.832,105.277 114.463,103.908 112.781,103.908 L 13.223,103.908 z"
         id="path3349" />
      <path
         style="opacity:0.2"
         d="M 13.223,104.924 C 12.1,104.924 11.187,105.837 11.187,106.96 C 11.187,108.081 12.1,108.996 13.223,108.996 L 112.781,108.996 C 113.902,108.996 114.816,108.081 114.816,106.96 C 114.816,105.837 113.902,104.924 112.781,104.924 L 13.223,104.924 z"
         id="path3351" />
      <path
         style="opacity:0.25"
         d="M 13.223,105.94 C 12.66,105.94 12.203,106.396 12.203,106.96 C 12.203,107.524 12.659,107.98 13.223,107.98 L 112.781,107.98 C 113.343,107.98 113.801,107.524 113.801,106.96 C 113.801,106.396 113.344,105.94 112.781,105.94 L 13.223,105.94 z"
         id="path3353" />
    </g>
    <rect
       style="opacity:1;fill:url(#linearGradient3174);fill-opacity:1;fill-rule:nonzero;stroke:none;stroke-width:1.63090873;stroke-linecap:round;stroke-linejoin:round;stroke-miterlimit:4;stroke-dasharray:none;stroke-dashoffset:4;stroke-opacity:1"
       id="rect2270"
       width="104.44205"
       height="99.247627"
       x="6.6634769"
       y="4.1796484"
       rx="1.7855026"
       ry="2.0565588" />
    <rect
       ry="2.0565588"
       rx="1.7855026"
       y="4.1796484"
       x="6.6634769"
       height="55.328808"
       width="104.44205"
       id="rect3192"
       style="opacity:1;fill:url(#linearGradient3200);fill-opacity:1;fill-rule:nonzero;stroke:none;stroke-width:1.63090873;stroke-linecap:round;stroke-linejoin:round;stroke-miterlimit:4;stroke-dasharray:none;stroke-dashoffset:4;stroke-opacity:1" />
    <path
       style="fill:url(#linearGradient3202);fill-opacity:1;fill-rule:nonzero;stroke:none;stroke-width:1.63090873;stroke-linecap:round;stroke-linejoin:round;stroke-miterlimit:4;stroke-dashoffset:4;stroke-opacity:1"
       d="M 8.4537776,4.1796507 L 109.31521,4.1796507 C 110.30703,4.1796507 111.10551,5.0993419 111.10551,6.241738 L 116.97943,31.679216 C 116.97943,32.821614 116.18094,33.741303 115.18912,33.741303 L 2.5798659,33.741303 C 1.5880375,33.741303 0.78956244,32.821614 0.78956244,31.679216 L 6.6634764,6.241738 C 6.6634764,5.0993419 7.4619502,4.1796507 8.4537776,4.1796507 z"
       id="rect3187"
       sodipodi:nodetypes="ccccccccc" />
    <g
       id="g3231"
       transform="matrix(1.0893811,0,0,0.5449611,-10.954945,-20.372108)"
       style="opacity:0.704918;fill:none;fill-opacity:1;stroke:url(#linearGradient3278)">
      <path
         id="path3217"
         d="M 18,47.999999 L 110.25,47.999999"
         style="fill:none;fill-opacity:1;fill-rule:evenodd;stroke:url(#linearGradient3280);stroke-width:2.5;stroke-linecap:round;stroke-linejoin:round;stroke-miterlimit:4;stroke-dasharray:none;stroke-opacity:0.12601624" />
      <path
         style="fill:none;fill-opacity:1;fill-rule:evenodd;stroke:url(#linearGradient3282);stroke-width:2.0999999;stroke-linecap:round;stroke-linejoin:round;stroke-miterlimit:4;stroke-dasharray:none;stroke-opacity:0.12601624"
         d="M 18,47.799999 L 110.25,47.799999"
         id="path3219" />
      <path
         id="path3221"
         d="M 18,47.699999 L 110.25,47.699999"
         style="fill:none;fill-opacity:1;fill-rule:evenodd;stroke:url(#linearGradient3284);stroke-width:1.89999998;stroke-linecap:round;stroke-linejoin:round;stroke-miterlimit:4;stroke-dasharray:none;stroke-opacity:0.12601624" />
      <path
         style="fill:none;fill-opacity:1;fill-rule:evenodd;stroke:url(#linearGradient3286);stroke-width:1.79999995;stroke-linecap:round;stroke-linejoin:round;stroke-miterlimit:4;stroke-dasharray:none;stroke-opacity:0.22357722"
         d="M 18,47.649999 L 110.25,47.649999"
         id="path3223" />
      <path
         id="path3225"
         d="M 18,47.649999 L 110.25,47.649999"
         style="fill:none;fill-opacity:1;fill-rule:evenodd;stroke:url(#linearGradient3288);stroke-width:1.60000002;stroke-linecap:round;stroke-linejoin:round;stroke-miterlimit:4;stroke-dasharray:none;stroke-opacity:0.22357722" />
      <path
         style="fill:none;fill-opacity:1;fill-rule:evenodd;stroke:url(#linearGradient3290);stroke-width:0.80000001;stroke-linecap:round;stroke-linejoin:round;stroke-miterlimit:4;stroke-dasharray:none;stroke-opacity:0.22357722"
         d="M 18,47.249999 L 110.25,47.249999"
         id="path3227" />
      <path
         id="path3229"
         d="M 18,47.199999 L 110.25,47.199999"
         style="fill:none;fill-opacity:1;fill-rule:evenodd;stroke:url(#linearGradient3292);stroke-width:0.5;stroke-linecap:round;stroke-linejoin:round;stroke-miterlimit:4;stroke-dasharray:none;stroke-opacity:0.22357722" />
    </g>
    <g
       id="g3254"
       transform="matrix(1.0893811,0,0,1.2547594,-29.217882,-167.86149)">
      <path
         id="path3240"
         d="M 27.65625,158.6875 L 27.53125,159.09375 C 27.53125,160.0042 28.277048,160.71875 29.1875,160.71875 L 132.53125,160.71875 C 133.44169,160.71875 134.1875,160.0042 134.1875,159.09375 L 134.0625,158.6875 C 133.8203,159.29223 133.22452,159.71875 132.53125,159.71875 L 29.1875,159.71875 C 28.49422,159.71875 27.898446,159.29224 27.65625,158.6875 z"
         style="fill:#000000;fill-opacity:0.06910568;fill-rule:nonzero;stroke:none;stroke-width:1.63090873;stroke-linecap:round;stroke-linejoin:round;stroke-miterlimit:4;stroke-dashoffset:4;stroke-opacity:1" />
      <path
         id="path3249"
         d="M 27.5625,159.03125 L 27.53125,159.09375 C 27.53125,160.0042 28.277048,160.71875 29.1875,160.71875 L 132.53125,160.71875 C 133.44169,160.71875 134.1875,160.0042 134.1875,159.09375 L 134.15625,159.03125 C 134.00105,159.77795 133.32788,160.31249 132.53125,160.3125 L 29.1875,160.3125 C 28.390855,160.3125 27.717698,159.77795 27.5625,159.03125 z"
         style="fill:#000000;fill-opacity:0.06910568;fill-rule:nonzero;stroke:none;stroke-width:1.63090873;stroke-linecap:round;stroke-linejoin:round;stroke-miterlimit:4;stroke-dashoffset:4;stroke-opacity:1" />
    </g>
    <g
       transform="matrix(1.0893811,0,0,1.2547594,-29.217882,-168.1125)"
       id="g3258">
      <path
         style="fill:#000000;fill-opacity:0.06910568;fill-rule:nonzero;stroke:none;stroke-width:1.63090873;stroke-linecap:round;stroke-linejoin:round;stroke-miterlimit:4;stroke-dashoffset:4;stroke-opacity:1"
         d="M 27.65625,158.6875 L 27.53125,159.09375 C 27.53125,160.0042 28.277048,160.71875 29.1875,160.71875 L 132.53125,160.71875 C 133.44169,160.71875 134.1875,160.0042 134.1875,159.09375 L 134.0625,158.6875 C 133.8203,159.29223 133.22452,159.71875 132.53125,159.71875 L 29.1875,159.71875 C 28.49422,159.71875 27.898446,159.29224 27.65625,158.6875 z"
         id="path3260" />
      <path
         style="fill:#000000;fill-opacity:0.06910568;fill-rule:nonzero;stroke:none;stroke-width:1.63090873;stroke-linecap:round;stroke-linejoin:round;stroke-miterlimit:4;stroke-dashoffset:4;stroke-opacity:1"
         d="M 27.5625,159.03125 L 27.53125,159.09375 C 27.53125,160.0042 28.277048,160.71875 29.1875,160.71875 L 132.53125,160.71875 C 133.44169,160.71875 134.1875,160.0042 134.1875,159.09375 L 134.15625,159.03125 C 134.00105,159.77795 133.32788,160.31249 132.53125,160.3125 L 29.1875,160.3125 C 28.390855,160.3125 27.717698,159.77795 27.5625,159.03125 z"
         id="path3262" />
    </g>
    <path
       style="opacity:0.20901639;fill:url(#linearGradient3662);fill-opacity:1;fill-rule:nonzero;stroke:none;stroke-width:1.63090873;stroke-linecap:round;stroke-linejoin:round;stroke-miterlimit:4;stroke-dashoffset:4;stroke-opacity:1"
       d="M 107.5727,4.7602845 C 108.56453,4.7602818 109.315,5.7141273 109.65156,7.1994539 L 115.50973,32.089262 C 115.50973,32.771845 115.21851,33.401242 114.77746,33.776135 C 115.76927,33.776135 116.57152,32.852111 116.57152,31.709716 L 110.67674,6.7777358 C 110.67674,5.6353396 109.8745,4.7534897 108.88267,4.7534884 L 107.5727,4.7602845 z"
       id="path3640"
       sodipodi:nodetypes="cccccccc" />
    <path
       style="opacity:0.20901639;fill:url(#linearGradient3660);fill-opacity:1;fill-rule:nonzero;stroke:none;stroke-width:1.63090873;stroke-linecap:round;stroke-linejoin:round;stroke-miterlimit:4;stroke-dashoffset:4;stroke-opacity:1"
       d="M 108.27318,4.7653465 C 109.26501,4.7653424 110.02359,5.7259855 110.36015,7.211312 L 116.21832,32.101119 C 116.21832,32.580436 116.05381,33.009119 115.81557,33.366274 C 116.2683,32.99139 116.58446,32.413731 116.58446,31.721574 L 110.68967,6.7895938 C 110.68967,5.6471949 109.88744,4.7653478 108.89561,4.7653465 L 108.27318,4.7653465 z"
       id="path3649"
       sodipodi:nodetypes="cccccccc" />
    <path
       sodipodi:nodetypes="ccc"
       id="path3946"
       d="M 177.982,-17.593684 L 177.982,-20.388393 L 177.982,-17.593684 z "
       style="fill:white;fill-opacity:0.75688076;fill-rule:nonzero;stroke:none;stroke-width:0.5;stroke-linecap:round;stroke-linejoin:round;stroke-miterlimit:4;stroke-dasharray:none;stroke-dashoffset:4;stroke-opacity:1" />
    <path
       sodipodi:type="arc"
       style="opacity:0.38139535;fill:url(#radialGradient4000);fill-opacity:1;fill-rule:nonzero;stroke:none;stroke-width:0;stroke-linecap:round;stroke-linejoin:round;stroke-miterlimit:4;stroke-dasharray:none;stroke-dashoffset:4;stroke-opacity:1"
       id="path3289"
       sodipodi:cx="63.912209"
       sodipodi:cy="115.70919"
       sodipodi:rx="63.912209"
       sodipodi:ry="12.641975"
       d="M 127.82442,115.70919 A 63.912209,12.641975 0 1 1 0,115.70919 A 63.912209,12.641975 0 1 1 127.82442,115.70919 z"
       transform="matrix(1.0004809,0,0,0.3574649,5.8418744e-2,64.009337)" />
    <path
       sodipodi:type="arc"
       style="opacity:0.38139535;fill:url(#radialGradient4024);fill-opacity:1;fill-rule:nonzero;stroke:none;stroke-width:0;stroke-linecap:round;stroke-linejoin:round;stroke-miterlimit:4;stroke-dasharray:none;stroke-dashoffset:4;stroke-opacity:1"
       id="path1563"
       sodipodi:cx="63.912209"
       sodipodi:cy="115.70919"
       sodipodi:rx="63.912209"
       sodipodi:ry="12.641975"
       d="M 127.82442,115.70919 A 63.912209,12.641975 0 1 1 0,115.70919 A 63.912209,12.641975 0 1 1 127.82442,115.70919 z"
       transform="matrix(0.5557161,0,0,0.1952812,57.085833,81.950778)" />
    <rect
       style="opacity:0.57786889;fill:white;fill-opacity:1;fill-rule:nonzero;stroke:none;stroke-width:3.63199997;stroke-linecap:round;stroke-linejoin:round;stroke-miterlimit:4;stroke-dasharray:none;stroke-dashoffset:4;stroke-opacity:1"
       id="rect1327"
       width="1"
       height="0"
       x="27.87281"
       y="-0.29999" />
    <g
       style="font-size:44.40415573px;font-style:normal;font-variant:normal;font-weight:normal;font-stretch:normal;text-align:start;line-height:125%;writing-mode:lr-tb;text-anchor:start;fill:#000000;fill-opacity:1;stroke:none;font-family:Dustismo;-inkscape-font-specification:Dustismo"
       id="text4331">
      <path
         d="m 36.902501,44.529883 c -1.879103,1.8e-5 -3.273959,0.925104 -4.184572,2.77526 -0.693833,1.402098 -1.04074,3.158315 -1.040722,5.268657 l 0,10.36386 -2.818623,0 -0.02168,-10.36386 c -1.5e-5,-5.362596 -1.582778,-8.043899 -4.748296,-8.043917 -1.922453,1.8e-5 -3.360673,0.910649 -4.314662,2.731896 -0.751637,1.431008 -1.127453,3.201679 -1.127449,5.312021 l 0,10.36386 -2.818623,0 0,-20.749403 2.818623,0 0,2.298262 c 1.300897,-1.850153 3.114933,-2.775238 5.442111,-2.775259 3.165518,2.1e-5 5.304778,1.503285 6.417788,4.509797 0.794979,-3.006512 2.927013,-4.509776 6.396107,-4.509797 5.044585,2.1e-5 7.566888,3.620864 7.566919,10.86254 l 0,10.36386 -2.818624,0 0,-10.36386 c -2.7e-5,-5.362596 -1.582791,-8.043899 -4.748295,-8.043917"
         style=""
         id="path4311" />
      <path
         d="m 51.689431,52.899025 c 0.08672,2.052544 0.881719,3.83767 2.384989,5.355384 1.532167,1.561087 3.317293,2.341628 5.355384,2.341626 1.488798,2e-6 2.955926,-0.455313 4.401389,-1.365948 1.44543,-0.910628 2.486151,-2.038076 3.122167,-3.382348 l 2.818623,0.498679 c -0.809472,2.009177 -2.204328,3.693122 -4.184571,5.05184 -1.965825,1.344267 -4.018359,2.0164 -6.157608,2.0164 -2.87645,0 -5.348163,-1.084085 -7.415147,-3.252258 -2.066993,-2.168166 -3.100487,-4.697697 -3.100486,-7.5886 -1e-6,-2.890883 1.033493,-5.420414 3.100486,-7.588601 2.066984,-2.182606 4.538697,-3.273918 7.415147,-3.273939 2.963153,2.1e-5 5.456548,1.134696 7.480192,3.404029 1.951334,2.182642 2.92701,4.777218 2.927032,7.783736 l -18.147597,0 m 7.740373,-8.369142 c -1.590003,1.8e-5 -3.08604,0.556515 -4.488115,1.669492 -1.315364,1.040738 -2.276585,2.334413 -2.883669,3.881027 l 14.526751,0 c -0.52038,-1.561069 -1.423784,-2.869198 -2.710215,-3.92439 -1.358736,-1.084068 -2.840318,-1.626111 -4.444752,-1.626129"
         style=""
         id="path4313" />
      <path
         d="m 78.791578,42.188257 5.225294,0 0,2.818624 -5.225294,0 0,12.900621 c -6e-6,1.517724 1.055169,2.276583 3.165531,2.27658 0.26017,3e-6 0.621532,-0.0072 1.084086,-0.02168 0.462532,-0.02891 0.787757,-0.04336 0.975677,-0.04336 l 0,2.818623 -3.057122,0 c -1.416546,0 -2.601812,-0.484224 -3.555802,-1.452675 -0.954,-0.968447 -1.430997,-2.160941 -1.430993,-3.577483 l 0,-12.900621 -3.252257,0 0,-2.818624 c 1.618899,2.1e-5 2.60903,-0.368568 2.970395,-1.105767 0.187904,-0.375794 0.281858,-1.496015 0.281862,-3.360666 l 2.818623,0 0,4.466433"
         style=""
         id="path4315" />
      <path
         d="m 96.201997,60.596035 c 1.300891,2e-6 2.60902,-0.224042 3.924393,-0.672133 1.76343,-0.59263 2.64515,-1.40208 2.64517,-2.428353 l 0,-4.769977 c -0.0289,0.216827 -1.27201,0.361371 -3.729258,0.433634 -1.936912,0.07228 -3.331768,0.202372 -4.184572,0.390271 -1.59,0.332462 -2.768039,0.997367 -3.534119,1.994718 -0.534821,0.693821 -0.802229,1.344272 -0.802224,1.951354 -5e-6,2.066994 1.89353,3.100488 5.68061,3.100486 M 102.77156,47.65205 c -2e-5,-0.953979 -0.72997,-1.756202 -2.18986,-2.406671 -1.199732,-0.520343 -2.348862,-0.780523 -3.447389,-0.780541 -3.599173,1.8e-5 -5.832388,1.257556 -6.699651,3.772618 L 87.702764,47.65205 c 0.390268,-2.052519 1.510489,-3.591919 3.360666,-4.618206 1.561076,-0.881702 3.476293,-1.322563 5.745655,-1.322584 1.879069,2.1e-5 3.714785,0.433655 5.507155,1.300903 2.18261,1.055195 3.27392,2.413915 3.27394,4.076162 l 0,12.553714 c -2e-5,0.578182 0.34689,0.89618 1.04072,0.953996 -0.0289,0.462545 -0.0651,1.394858 -0.10841,2.796941 -1.5611,-0.08673 -2.65241,-0.715496 -3.27394,-1.886309 -1.77791,1.271994 -4.076172,1.907991 -6.894781,1.907991 -5.882978,0 -8.824461,-1.987489 -8.824459,-5.962472 -2e-6,-1.069625 0.36136,-2.139255 1.084086,-3.208894 1.026264,-1.546619 2.457256,-2.558431 4.29298,-3.03544 0.910624,-0.245715 2.558432,-0.397487 4.943431,-0.455317 1.994704,-0.05781 3.432923,-0.325213 4.314663,-0.802223 0.3758,-0.20235 0.58539,-0.534802 0.62877,-0.997359 -0.0145,0.159013 -0.0217,-0.274621 -0.0217,-1.300903"
         style=""
         id="path4317" />
    </g>
    <g
       id="g5807"
       transform="translate(59.173383,-87.11237)">
      <circle
         sodipodi:ry="36"
         sodipodi:rx="36"
         sodipodi:cy="92"
         sodipodi:cx="343.99899"
         style="opacity:0.5;fill:#000000;fill-opacity:1;filter:url(#filter4292)"
         r="36"
         rx="8.0010004"
         cx="343.99899"
         cy="92"
         ry="8.0010004"
         id="circle4274"
         transform="matrix(-0.858425,0.2300143,-0.2300143,-0.858425,350.93869,181.44916)"
         d="m 379.99899,92 c 0,19.88225 -16.11775,36 -36,36 -19.88225,0 -36,-16.11775 -36,-36 0,-19.882251 16.11775,-36 36,-36 19.88225,0 36,16.117749 36,36 z" />
      <circle
         transform="matrix(-0.858425,0.2300143,-0.2300143,-0.858425,351.26799,178.81461)"
         id="circle3581_2_"
         ry="8.0010004"
         cy="92"
         cx="343.99899"
         rx="8.0010004"
         r="36"
         style="fill:url(#linearGradient7438);fill-opacity:1"
         sodipodi:cx="343.99899"
         sodipodi:cy="92"
         sodipodi:rx="36"
         sodipodi:ry="36"
         d="m 379.99899,92 c 0,19.88225 -16.11775,36 -36,36 -19.88225,0 -36,-16.11775 -36,-36 0,-19.882251 16.11775,-36 36,-36 19.88225,0 36,16.117749 36,36 z" />
      <circle
         sodipodi:ry="36"
         sodipodi:rx="36"
         sodipodi:cy="92"
         sodipodi:cx="343.99899"
         style="fill:url(#radialGradient7440);fill-opacity:1"
         r="36"
         rx="8.0010004"
         cx="343.99899"
         cy="92"
         ry="8.0010004"
         id="circle4383"
         transform="matrix(-0.6438188,0.1725107,-0.1725107,-0.6438188,272.15336,178.85201)"
         d="m 379.99899,92 c 0,19.88225 -16.11775,36 -36,36 -19.88225,0 -36,-16.11775 -36,-36 0,-19.882251 16.11775,-36 36,-36 19.88225,0 36,16.117749 36,36 z" />
      <circle
         sodipodi:ry="36"
         sodipodi:rx="36"
         sodipodi:cy="92"
         sodipodi:cx="343.99899"
         style="opacity:0.8;fill:none;fill-opacity:1;stroke:url(#linearGradient7442);stroke-width:6.75138187;stroke-miterlimit:4;stroke-dasharray:none;stroke-opacity:1;filter:url(#filter7317)"
         r="36"
         rx="8.0010004"
         cx="343.99899"
         cy="92"
         ry="8.0010004"
         id="circle4776"
         transform="matrix(-0.858425,-0.2300143,-0.2300143,0.858425,351.26799,179.11375)"
         clip-path="url(#clipPath5163)"
         d="m 379.99899,92 c 0,19.88225 -16.11775,36 -36,36 -19.88225,0 -36,-16.11775 -36,-36 0,-19.882251 16.11775,-36 36,-36 19.88225,0 36,16.117749 36,36 z" />
      <path
         id="circle16776"
         d="M 34.809378,151.11237 C 23.463662,151.11237 13.983283,159.12398 11.698264,169.79059 C 16.252925,174.03648 24.895157,176.9017 34.809378,176.9017 C 44.723611,176.9017 53.365831,174.03648 57.920491,169.79059 C 55.635481,159.12398 46.155091,151.11237 34.809378,151.11237 z"
         style="opacity:0.8;fill:url(#linearGradient7444);fill-opacity:1" />
      <g
         transform="translate(-87.19068,142.96419)"
         id="g6850">
        <path
           id="path4123"
           d="M 118.00003,15.999997 L 118.00003,31.999997 L 102.00003,31.999997 L 102.00003,39.999997 L 118.00003,39.999997 L 118.00003,55.999997 L 126.00003,55.999997 L 126.00003,39.999997 L 142.00003,39.999997 L 142.00003,31.999997 L 126.00003,31.999997 L 126.00003,15.999997 L 118.00003,15.999997 z"
           style="fill:none;fill-opacity:1;fill-rule:evenodd;stroke:url(#linearGradient7446);stroke-width:4;stroke-linecap:round;stroke-linejoin:round;stroke-miterlimit:4;stroke-opacity:1;filter:url(#filter5943)"
           sodipodi:nodetypes="ccccccccccccc" />
        <path
           style="fill:#ffffff;fill-opacity:1;fill-rule:evenodd;stroke:none;stroke-width:4;stroke-linecap:round;stroke-linejoin:round;stroke-miterlimit:4;stroke-opacity:1"
           d="M 118.00003,15.999997 L 118.00003,31.999997 L 102.00003,31.999997 L 102.00003,39.999997 L 118.00003,39.999997 L 118.00003,55.999997 L 126.00003,55.999997 L 126.00003,39.999997 L 142.00003,39.999997 L 142.00003,31.999997 L 126.00003,31.999997 L 126.00003,15.999997 L 118.00003,15.999997 z"
           id="rect3232"
           sodipodi:nodetypes="ccccccccccccc" />
      </g>
    </g>
  </g>
</svg>
