/* XPM */
static char *metapackage_installer___[] = {
/* columns rows colors chars-per-pixel */
"16 16 185 2",
"   c #473720",
".  c #226E0F",
"X  c #2D7114",
"o  c #554428",
"O  c #57462A",
"+  c #5B4728",
"@  c #5E4A2B",
"#  c #644F2D",
"$  c #6D5733",
"%  c #6A5534",
"&  c #6F5833",
"*  c #6E5835",
"=  c #705834",
"-  c #715934",
";  c #715A35",
":  c #755D37",
">  c #775E37",
",  c #725C38",
"<  c #765F3A",
"1  c #775F3A",
"2  c #597B29",
"3  c #746B2B",
"4  c #647527",
"5  c #6D6731",
"6  c #7A6038",
"7  c #7A623A",
"8  c #7E643B",
"9  c #7F643B",
"0  c #7D653D",
"q  c #7F7635",
"w  c #85693C",
"e  c #85693D",
"r  c #8A6B3B",
"t  c #896C3D",
"y  c #896C3E",
"u  c #916E36",
"i  c #927038",
"p  c #947139",
"a  c #95723B",
"s  c #96743C",
"d  c #98753D",
"f  c #99753D",
"g  c #98773F",
"h  c #9A773E",
"j  c #8D7041",
"k  c #987740",
"l  c #997740",
"z  c #9A7842",
"x  c #9A7942",
"c  c #9B7942",
"v  c #9B7943",
"b  c #9B7A43",
"n  c #9C7840",
"m  c #9D7A41",
"M  c #9E7B42",
"N  c #9F7B42",
"B  c #9C7A44",
"V  c #9D7B45",
"C  c #9C7B46",
"Z  c #9D7C45",
"A  c #9F7C45",
"S  c #A07C43",
"D  c #A07C44",
"F  c #A17D45",
"G  c #A27F46",
"H  c #008100",
"J  c #008500",
"K  c #008800",
"L  c #008D00",
"P  c #1D8E0C",
"I  c #009400",
"U  c #009500",
"Y  c #009800",
"T  c #1F9416",
"R  c #02A201",
"E  c #07A500",
"W  c #00AA00",
"Q  c #05A900",
"!  c #00AC00",
"~  c #00AE00",
"^  c #0AAD00",
"/  c #15AE0E",
"(  c #01B000",
")  c #00B200",
"_  c #01B200",
"`  c #0FB300",
"'  c #10AB10",
"]  c #1FB01F",
"[  c #2ABB00",
"{  c #2CBA00",
"}  c #38B337",
"|  c #44BE00",
" . c #4ABC2C",
".. c #46A23E",
"X. c #62C700",
"o. c #57C128",
"O. c #7DC93E",
"+. c #7AB958",
"@. c #46C946",
"#. c #61CC61",
"$. c #6DDA6D",
"%. c #70DA6A",
"&. c #7FD87F",
"*. c #938042",
"=. c #A38047",
"-. c #A48048",
";. c #A58149",
":. c #A58249",
">. c #A6834A",
",. c #A7844B",
"<. c #A7844C",
"1. c #A8854D",
"2. c #A9854D",
"3. c #AA864E",
"4. c #AA874E",
"5. c #AA874F",
"6. c #A9884F",
"7. c #AA8750",
"8. c #AB8850",
"9. c #AC8951",
"0. c #AE8A52",
"q. c #AE8B52",
"w. c #AF8B53",
"e. c #AF8C54",
"r. c #AF8D57",
"t. c #B08D54",
"y. c #B08D55",
"u. c #B18E56",
"i. c #B18E57",
"p. c #B28F57",
"a. c #B08E59",
"s. c #B39058",
"d. c #B49159",
"f. c #B5925A",
"g. c #B6935B",
"h. c #B7945C",
"j. c #B8955D",
"k. c #B8955E",
"l. c #BA975F",
"z. c #BB9860",
"x. c #BC9961",
"c. c #BD9A62",
"v. c #BE9B63",
"b. c #BF9C65",
"n. c #C09D65",
"m. c #C09D66",
"M. c #C19E67",
"N. c #C19F67",
"B. c #C09E68",
"V. c #C2A068",
"C. c #C3A169",
"Z. c #C3A16A",
"A. c #C4A26A",
"S. c #C6A36B",
"D. c #C1A16E",
"F. c #C7A46C",
"G. c #C8A56E",
"H. c #C9A66F",
"J. c #C3A572",
"K. c #C4A573",
"L. c #C5A573",
"P. c #C4A673",
"I. c #C6A674",
"U. c #C6A675",
"Y. c #C7A876",
"T. c #CAA870",
"R. c #CBA971",
"E. c #CCAA72",
"W. c #C8A875",
"Q. c #C9A975",
"!. c #C8A976",
"~. c #CDAB74",
"^. c #8EC040",
"/. c #8DD282",
"(. c #98DD98",
"). c #BBD6BA",
"_. c #CCE8BA",
"`. c #D8ECC0",
"'. c #D5EBC9",
"]. c #D7EED5",
"[. c #F9FCF8",
"{. c #FAFCF8",
"}. c #FCFEFA",
"|. c #FFFFFE",
" X c None",
/* pixels */
" XQ.Q.Y.Q.U.U.U.K.K.K.K.K.B. X X",
"Z.~.E.R.E.H.H.F.A.A.A.N.N.N. X X",
"N.Z.N.N.n.x.x.x.x.k.k.h.g.g. X X",
"h.k.d.d.d.d.p.i.t.t.t.5.7.7.8. X",
" XZ V V x x c x x r k k k k  X X",
" X7.o > = j w $ y   y + # V  X X",
" Xa., % i.< O * > - 8.- @ w  X X",
" Xi.0 < i.7 8 $ w 1 2 . X 5  X X",
" Xt.t.4.4.4.2.2.k T #.(.&.}  X X",
" X4.,.,.,.:.=.*.P @.$.]./.$.'  X",
" X>.:.:.=.N c t R ]  .'.+.o./ L ",
" XS S h h h f 4 ( ).[.|.}.{...U ",
" Xf s p p i u 3 ( ^ | `.^.X.` Y ",
" X X X X X X X XU ~ [ _.O.[ (  X",
" X X X X X X X X XW ( Q E ( H  X",
" X X X X X X X X X X XJ K  X X X"
};
