/* XPM */
static char *metapackage_installer___[] = {
/* columns rows colors chars-per-pixel */
"16 16 182 2",
"   c #43351E",
".  c #007D00",
"X  c #2A7012",
"o  c #2E7815",
"O  c #524228",
"+  c #59472B",
"@  c #5D4A2A",
"#  c #604C2D",
"$  c #66502E",
"%  c #68512E",
"&  c #695431",
"*  c #6C5633",
"=  c #6B5634",
"-  c #6F5935",
";  c #6F5A38",
":  c #705834",
">  c #705934",
",  c #715934",
"<  c #735B36",
"1  c #735C37",
"2  c #745D37",
"3  c #725C38",
"4  c #775E38",
"5  c #775F39",
"6  c #765F3A",
"7  c #5B7D2A",
"8  c #68652E",
"9  c #706A2A",
"0  c #657828",
"q  c #7F653C",
"w  c #82663B",
"e  c #8B6D3E",
"r  c #926F37",
"t  c #817735",
"y  c #937038",
"u  c #94713A",
"i  c #96733B",
"p  c #90713D",
"a  c #97743D",
"s  c #99763D",
"d  c #98753E",
"f  c #98763F",
"g  c #9B773F",
"h  c #8D6F41",
"j  c #957543",
"k  c #947645",
"l  c #987640",
"z  c #997740",
"x  c #9A7842",
"c  c #9A7942",
"v  c #9B7942",
"b  c #9B7943",
"n  c #9B7A43",
"m  c #9C7940",
"M  c #9E7A41",
"N  c #9F7B42",
"B  c #9F7B43",
"V  c #9C7B44",
"C  c #9D7B44",
"Z  c #9D7B45",
"A  c #9D7C45",
"S  c #A07C44",
"D  c #A07D44",
"F  c #A17E45",
"G  c #A27E46",
"H  c #A37F47",
"J  c #008A00",
"K  c #008D00",
"L  c #1E8F0C",
"P  c #009000",
"I  c #009700",
"U  c #1F9216",
"Y  c #00A000",
"T  c #00A100",
"R  c #00A700",
"E  c #02A801",
"W  c #00AF00",
"Q  c #10AD0E",
"!  c #00B000",
"~  c #01B000",
"^  c #02B100",
"/  c #00B200",
"(  c #00B300",
")  c #0CB200",
"_  c #1BB400",
"`  c #10AB10",
"'  c #28BA00",
"]  c #38BB00",
"[  c #35B61F",
"{  c #38B637",
"}  c #41A23E",
"|  c #61BF3E",
" . c #53C300",
".. c #54C028",
"X. c #6AC72C",
"o. c #76B940",
"O. c #46C746",
"+. c #61CC61",
"@. c #73DA6A",
"#. c #7FDD7F",
"$. c #928042",
"%. c #A48048",
"&. c #A48148",
"*. c #A58249",
"=. c #A6824A",
"-. c #A6834B",
";. c #A7844C",
":. c #A8844C",
">. c #A9864D",
",. c #A9864E",
"<. c #AA874F",
"1. c #AB874F",
"2. c #AA8750",
"3. c #AA8850",
"4. c #A88853",
"5. c #AC8850",
"6. c #AC8950",
"7. c #AD8A51",
"8. c #AE8B53",
"9. c #AF8C54",
"0. c #AF8D57",
"q. c #B08C54",
"w. c #B08D55",
"e. c #B18E55",
"r. c #B18E56",
"t. c #B38F57",
"y. c #B18F59",
"u. c #B49158",
"i. c #B5925A",
"p. c #B6935B",
"a. c #B7945C",
"s. c #B8955D",
"d. c #B9965E",
"f. c #BA975F",
"g. c #81BC58",
"h. c #BB9860",
"j. c #BC9962",
"k. c #BD9B63",
"l. c #BE9C64",
"z. c #C09D65",
"x. c #C09D66",
"c. c #C19E66",
"v. c #C29F67",
"b. c #C19F68",
"n. c #C3A068",
"m. c #C3A069",
"M. c #C4A169",
"N. c #C4A26A",
"B. c #C5A26B",
"V. c #C1A16E",
"C. c #C6A36C",
"Z. c #C7A56D",
"A. c #C8A66E",
"S. c #C9A76F",
"D. c #C4A573",
"F. c #C5A573",
"G. c #C5A673",
"H. c #C4A574",
"J. c #C6A674",
"K. c #C6A776",
"L. c #C7A876",
"P. c #CAA870",
"I. c #CCA972",
"U. c #CDAA73",
"Y. c #C9A875",
"T. c #C9AA75",
"R. c #C8A976",
"E. c #C9A976",
"W. c #CEAB74",
"Q. c #84E16D",
"!. c #96D582",
"~. c #98DE98",
"^. c #BED7BA",
"/. c #C7E7BA",
"(. c #D7ECC0",
"). c #DCEDC9",
"_. c #DCEFD5",
"`. c #F9FCF8",
"'. c #FAFDF8",
"]. c #FCFEFA",
"[. c #FFFFFE",
"{. c None",
/* pixels */
"{.T.T.T.T.K.K.K.F.F.F.F.D.V.{.{.",
"N.W.W.I.P.P.A.Z.C.N.N.N.c.b.{.{.",
"b.b.c.c.c.l.k.h.h.s.s.s.s.u.{.{.",
"s.s.p.p.u.u.r.r.r.9.q.7.7.2.3.{.",
"{.Z Z Z v v v v v p l f l l {.{.",
"{.2.# 6 & k h < j   e $ % G {.{.",
"{.y.- O 4.= + 2 < = 7.: @ w {.{.",
"{.y.6 3 r.< 6 < w * 7 o X 8 {.{.",
"{.q.7.7.7.>.>.;.k U +.~.#.{ {.{.",
"{.7.>.:.*.*.%.M L O.Q._.!.@.` {.",
"{.*.%.H G G S t W [ X.).g...Q P ",
"{.G S M g f f 0 ( ^.'.[.'.'.} I ",
"{.f a u u u r 9 ( _  .(.o.] ( I ",
"{.{.{.{.{.{.{.{.I ( ' /.| ) ( {.",
"{.{.{.{.{.{.{.{.{.E ( I Y W . {.",
"{.{.{.{.{.{.{.{.{.{.{.K J {.{.{."
};
