/* XPM */
static char *metapackage_installer[] = {
/* columns rows colors chars-per-pixel */
"32 32 158 2",
"   c #030202",
".  c #110D08",
"X  c #1C160C",
"o  c #261E12",
"O  c #2C2314",
"+  c #362C1A",
"@  c #392D1A",
"#  c #3E321E",
"$  c #41341E",
"%  c #433520",
"&  c #473922",
"*  c #4B3C23",
"=  c #005D00",
"-  c #1A530C",
";  c #006600",
":  c #006800",
">  c #346B17",
",  c #3E7C18",
"<  c #4A761C",
"1  c #534225",
"2  c #554429",
"3  c #5A4729",
"4  c #5D492B",
"5  c #624D2C",
"6  c #665725",
"7  c #675231",
"8  c #6C5631",
"9  c #755D35",
"0  c #785F38",
"q  c #507E20",
"w  c #7A6037",
"e  c #7C623A",
"r  c #846533",
"t  c #886733",
"y  c #8B6935",
"u  c #81673C",
"i  c #876A3C",
"p  c #8B6C3B",
"a  c #926E37",
"s  c #8D753B",
"d  c #96733C",
"f  c #99763D",
"g  c #9C783F",
"h  c #896D42",
"j  c #8C7041",
"k  c #967542",
"l  c #997641",
"z  c #9D7A42",
"x  c #9D7D4A",
"c  c #A17E45",
"v  c #A17F49",
"b  c #008300",
"n  c #038D01",
"m  c #0C8906",
"M  c #118007",
"N  c #019200",
"B  c #089103",
"V  c #009A00",
"C  c #099E06",
"Z  c #1D9D00",
"A  c #1D920D",
"S  c #238C0F",
"D  c #269B13",
"F  c #01A400",
"G  c #0AA100",
"H  c #01AB01",
"J  c #0CA800",
"K  c #15A400",
"L  c #1BA503",
"P  c #14AE00",
"I  c #01B400",
"U  c #01BB00",
"Y  c #12B400",
"T  c #1DBD00",
"R  c #16A216",
"E  c #21A800",
"W  c #33A400",
"Q  c #27B500",
"!  c #29B600",
"~  c #23BF00",
"^  c #2CBE00",
"/  c #38BC00",
"(  c #35A012",
")  c #3BA119",
"_  c #22B322",
"`  c #36BA36",
"'  c #3ABA3A",
"]  c #4BAB00",
"[  c #4AA519",
"{  c #57A919",
"}  c #61B100",
"|  c #6B822F",
" . c #6F8831",
".. c #3CCD3C",
"X. c #46C700",
"o. c #42CA00",
"O. c #59CD00",
"+. c #5FD300",
"@. c #60D400",
"#. c #7ADC00",
"$. c #4AD13D",
"%. c #62D83E",
"&. c #74DE3E",
"*. c #7EA97C",
"=. c #4BCC4B",
"-. c #5DD65D",
";. c #6CDA5D",
":. c #78DD5D",
">. c #73CE73",
",. c #7BDC7B",
"<. c #828038",
"1. c #84E13E",
"2. c #9A8043",
"3. c #A38047",
"4. c #A5824A",
"5. c #A9864D",
"6. c #AB884F",
"7. c #AD8A52",
"8. c #B18E56",
"9. c #B39057",
"0. c #B5925A",
"q. c #B9965E",
"w. c #BA9760",
"e. c #BD9A63",
"r. c #C19E66",
"t. c #C29F68",
"y. c #C5A26B",
"u. c #C9A66E",
"i. c #C3A272",
"p. c #CAA770",
"a. c #CCAA72",
"s. c #D0AE77",
"d. c #82E15D",
"f. c #92CD7C",
"g. c #84DF7D",
"h. c #84E07D",
"j. c #8AE27D",
"k. c #81AB80",
"l. c #94B983",
"z. c #CFB384",
"x. c #D3B586",
"c. c #D6B887",
"v. c #D8B985",
"b. c #D7B988",
"n. c #D8BA89",
"m. c #9AC380",
"M. c #9ACA80",
"N. c #9AC38C",
"B. c #94DB94",
"V. c #9CDE9C",
"C. c #A3CE99",
"Z. c #97E097",
"A. c #9CE39C",
"S. c #AFD9AB",
"D. c #B0D9AB",
"F. c #B5E8B5",
"G. c #FDFEFD",
"H. c None",
/* pixels */
"H.H.H.H.H.H.H.H.H.H.H.H.H.H.H.H.H.H.H.H.H.H.H.H.H.H.H.H.H.H.H.H.",
"H.y.v.n.n.b.b.c.c.c.c.c.c.c.x.c.x.x.x.x.x.x.x.x.z.x.x.i.H.H.H.H.",
"H.y.s.a.s.a.a.a.a.a.a.a.u.p.p.u.u.y.u.u.y.y.y.y.y.y.t.y.H.H.H.H.",
"H.u.a.a.a.u.u.a.u.u.u.t.y.y.y.y.y.y.y.e.r.r.r.r.e.e.e.e.H.H.H.H.",
"H.u.y.y.y.y.y.y.t.t.r.t.r.r.r.r.e.e.e.e.w.q.q.q.q.q.q.q.H.H.H.H.",
"H.r.r.r.e.e.e.w.e.w.w.w.w.q.q.w.q.q.0.q.q.0.0.0.0.0.8.8.q.H.H.H.",
"H.w.w.q.q.q.q.q.q.0.q.0.9.9.9.9.8.8.8.8.8.8.7.7.7.7.7.7.7.H.H.H.",
"0.0.0.0.0.9.9.8.9.9.7.8.8.7.8.6.7.7.7.6.6.6.6.6.4.6.4.6.4.H.H.H.",
"H.4.z z z z l z z l l l l l l l l d l l d d l d d d d d H.H.H.H.",
"H.H.4.v v 4.v v v v c v c v c c c c c 5 v v z z z c c v H.H.H.H.",
"H.H.6.5.e 0 4 v 8 5 v 5.4.v 7 0 v 4.1 X 3 3.k 5 1 r v c H.H.H.H.",
"H.H.8.6.  4 7 o % 0 @ 6.x O 0 8 @ 5.i o r 4.+ 9 i @ i 4.H.H.H.H.",
"H.H.0.7.o 0.8.. 7.8.+ 7.2 * 4 4 O h 7.+ 6.5.5.i 9 @ 5 4.H.H.H.H.",
"H.H.w.0.# 0.w.+ 9.9.& x % 0 h h p v 7.+ 7.6.# 1 9 3 5 5.H.H.H.H.",
"H.H.q.8.# 0.8.+ 9.9.& x h $ v v @ l 6.o z 4.O 6.4.* 5 4.H.H.H.H.",
"H.H.9.7.2 0.8.2 8.7.5 x 7.h # % i 4.6.7 - A m n N M > 2.H.H.H.H.",
"H.H.8.8.8.7.7.7.6.6.6.6.5.5.5.5.6.4. .m R >.A.F.Z.>.R B H.H.H.H.",
"H.H.7.7.6.7.6.6.6.5.5.4.5.4.4.4.v | B ' Z.Z.B.B.Z.A.Z.` N H.H.H.",
"H.H.6.6.6.6.6.5.5.5.4.4.4.3.3.3.<.n _ ,.,.B.D.G.S.j.h.,._ N H.H.",
"H.H.5.5.5.4.4.3.4.3.3.3.3.3.2.s S F =.-.;.:.C.G.C.d.:.;.=.V n H.",
"H.H.5.4.4.3.3.3.3.3.3.z c z z s n Y ..=.%.&.N.G.l.1.&.%.$.I N H.",
"H.H.3.3.3.3.3.c z z c z g g g | V I C D ( [ l.G.l.{ [ S L I V H.",
"H.H.v c 3.z z g g g g g g f d , V I k.G.G.G.G.G.G.G.G.G.k.I F b ",
"H.H.c z g z g g g g g f f d a , F U k.G.G.G.G.G.G.G.G.G.f.U F n ",
"H.H.g g g g g f d f d a d a a < H U G Z W ] l.G.l.} ] W E U F H.",
"H.H.p p y y y y y y t y t t r 6 F I I ~ o.@.m.G.l.#.@.o.T I H H.",
"H.H.H.H.H.H.H.H.H.H.H.H.H.H.H.  b I H Y ^ X.f.G.f.+.o.^ H I V H.",
"H.H.H.H.H.H.H.H.H.H.H.H.H.H.H.H.H.I I F P ! f.G.f.] ! I I I H.H.",
"H.H.H.H.H.H.H.H.H.H.H.H.H.H.H.H.H.= U I H F K K K J H I U H.H.H.",
"H.H.H.H.H.H.H.H.H.H.H.H.H.H.H.H.H.H.H.I U I H H H I U U H.H.H.H.",
"H.H.H.H.H.H.H.H.H.H.H.H.H.H.H.H.H.H.H.H.; H I U U H : H.H.H.H.H.",
"H.H.H.H.H.H.H.H.H.H.H.H.H.H.H.H.H.H.H.H.H.H.H.H.H.H.H.H.H.H.H.H."
};
