/* XPM */
static char *metapackage-installer[] = {
/* columns rows colors chars-per-pixel */
"32 32 197 2",
"   c #000000",
".  c #080704",
"X  c #0C0906",
"o  c #0F0D09",
"O  c #011A00",
"+  c #100D08",
"@  c #15110A",
"#  c #19140C",
"$  c #1F180D",
"%  c #1D1911",
"&  c #002900",
"*  c #003200",
"=  c #261D0F",
"-  c #231C12",
";  c #2B2213",
":  c #2B241A",
">  c #312615",
",  c #342917",
"<  c #322A1C",
"1  c #3A2B17",
"2  c #3E301B",
"3  c #352D20",
"4  c #3C3324",
"5  c #004700",
"6  c #004F00",
"7  c #094403",
"8  c #005400",
"9  c #005B00",
"0  c #1D450C",
"q  c #006100",
"w  c #1D6212",
"e  c #204C14",
"r  c #2D761B",
"t  c #3F7526",
"y  c #41331D",
"u  c #4B3A1F",
"i  c #403626",
"p  c #423827",
"a  c #463B29",
"s  c #483921",
"d  c #493D2B",
"f  c #503F25",
"g  c #4C412E",
"h  c #514024",
"j  c #544328",
"k  c #5E4928",
"l  c #524531",
"z  c #554935",
"x  c #5A4E38",
"c  c #477B2C",
"v  c #634D2C",
"b  c #67522F",
"n  c #675926",
"m  c #6C532D",
"M  c #64553D",
"N  c #6D5631",
"B  c #6F5833",
"V  c #735B35",
"C  c #795F36",
"Z  c #7A6036",
"A  c #7C663F",
"S  c #6E5D44",
"D  c #6C6240",
"F  c #756346",
"G  c #766449",
"H  c #786648",
"J  c #7D6A4D",
"K  c #7F6D50",
"L  c #008400",
"P  c #008C00",
"I  c #0B8707",
"U  c #098B05",
"Y  c #009400",
"T  c #009C00",
"R  c #089303",
"E  c #099D06",
"W  c #14830D",
"Q  c #158C0D",
"!  c #1D9D00",
"~  c #00A300",
"^  c #00AB00",
"/  c #0AA100",
"(  c #01B300",
")  c #00BA00",
"_  c #0BB000",
"`  c #14A400",
"'  c #14AE00",
"]  c #1BA303",
"[  c #16A316",
"{  c #12B400",
"}  c #1CBD00",
"|  c #228E0F",
" . c #269B13",
".. c #369F12",
"X. c #21A800",
"o. c #24BB00",
"O. c #29B600",
"+. c #2BBE00",
"@. c #34A300",
"#. c #3BA119",
"$. c #38BC00",
"%. c #21AF21",
"&. c #22B722",
"*. c #36B836",
"=. c #3ABA3A",
"-. c #00C300",
";. c #3CCD3C",
":. c #5C8A28",
">. c #4AAB00",
",. c #4AA519",
"<. c #58A919",
"1. c #62B100",
"2. c #7DA87C",
"3. c #46C700",
"4. c #41CA00",
"5. c #59CD00",
"6. c #5FD300",
"7. c #4AD13D",
"8. c #60D400",
"9. c #7ADC00",
"0. c #61D83E",
"q. c #74DE3E",
"w. c #4BCB4B",
"e. c #4BD04B",
"r. c #5DD55D",
"t. c #6BD95D",
"y. c #78DD5D",
"u. c #72CD72",
"i. c #74D574",
"p. c #7AD57A",
"a. c #7CDC7C",
"s. c #866531",
"d. c #846739",
"f. c #876937",
"g. c #85693C",
"h. c #886632",
"j. c #8A6934",
"k. c #8C6D3B",
"l. c #95733D",
"z. c #9A773E",
"x. c #9C783F",
"c. c #836B44",
"v. c #806D50",
"b. c #827053",
"n. c #947441",
"m. c #957748",
"M. c #9D7A42",
"N. c #9B7C4B",
"B. c #A17E45",
"V. c #A07E49",
"C. c #9A8143",
"Z. c #A38046",
"A. c #A5824A",
"S. c #A9854D",
"D. c #AB884E",
"F. c #AD8A52",
"G. c #B18D55",
"H. c #B28E59",
"J. c #B39057",
"K. c #B49159",
"L. c #B8955D",
"P. c #BA9760",
"I. c #BD9A62",
"U. c #84E13E",
"Y. c #84DF7D",
"T. c #92CC7C",
"R. c #82E15D",
"E. c #84E07D",
"W. c #8AE27D",
"Q. c #C09E66",
"!. c #C29F68",
"~. c #C4A26A",
"^. c #C8A66E",
"/. c #C3A272",
"(. c #CAA770",
"). c #CCA972",
"_. c #D0AD76",
"`. c #81AB80",
"'. c #94B883",
"]. c #99C280",
"[. c #9AC28C",
"{. c #9ACA80",
"}. c #94DC94",
"|. c #9CDE9C",
" X c #97E197",
".X c #9CE39C",
"XX c #A3CD99",
"oX c #B0D9AB",
"OX c #B5E7B5",
"+X c #CFB384",
"@X c #D2B585",
"#X c #D6B887",
"$X c #D7B888",
"%X c #D8B985",
"&X c #D8B988",
"*X c #FEFEFE",
"=X c None",
/* pixels */
"=X=X=X=X=X=X=X=X=X=X=X=X=X=X=X=X=X=X=X=X=X=X=X=X=X=X=X=X=X=X=X=X",
"=X~.&X&X&X&X$X#X#X#X#X#X#X@X#X@X@X@X@X@X@X@X@X+X@X+X@X/.=X=X=X=X",
"=X~.).).).).).).).).).).^.).^.^.^.^.^.~.^.~.~.~.!.~.!./.Q.=X=X=X",
"=X^.).).).).^.^.^.~.~.~.~.~.~.~.!.~.!.Q.Q.Q.Q.I.I.I.I.I.~.=X=X=X",
"^.~.~.~.~.~.~.Q.~.Q.Q.~.Q.I.I.I.I.I.I.I.P.P.P.P.L.L.L.L.I.=X=X=X",
"Q.Q.Q.Q.Q.I.I.I.P.P.P.P.P.P.P.L.L.L.L.J.L.J.L.J.J.H.G.H.P.=X=X=X",
"I.L.P.P.P.L.L.L.L.L.K.L.L.J.L.H.G.G.G.G.G.G.F.F.F.F.D.F.F.=X=X=X",
"L.J.L.J.J.J.J.G.J.J.F.H.F.F.F.F.F.F.F.F.D.D.D.S.S.S.S.S.S.C.=X=X",
"N.A.M.m.M.M.d.s c.c.c.c.c.c.c.c.c.c.c.c.c.A j b l.l.l.z.k.d.=X=X",
"=XF.A.B.A.V.b X H H H J : - % # @ + X         k B.M.B.B.=X=X=X=X",
"=XG.D.S.D.S.b + J J J M   % , 2 f v B C d.k.l.B.B.B.B.B.=X=X=X=X",
"=XH.G.G.G.F.V X J J J G %           . o - C A.A.A.A.A.A.=X=X=X=X",
"=XK.J.J.J.J.m.  G v.v.v.v.v.J G S M x l 3   2 S.S.A.S.A.=X=X=X=X",
"=XL.L.L.L.L.K.  x b.b.v.v.v.v.v.v.J v.v.K M . B S.S.S.A.=X=X=X=X",
"=XL.J.L.H.J.J.j o J K v.v.K J K J J J J J J 4 @ A.A.A.A.=X=X=X=X",
"=XJ.J.J.H.G.G.F.# o z S J K J J J J J H c Q U P R | :.C.=X=X=X=X",
"=XH.G.G.F.F.F.F.A.h       . o % % ; e I [ i.|.OX.Xu.[ R Y =X=X=X",
"=XF.F.F.F.F.F.F.D.S.V.n.g.Z N k h 0 P =. X.X}.}.}..X}.*.P T =X=X",
"=XD.D.S.S.S.g.h s 2 , : - # o . O P &.a.a.E.oX*XoXW.E.p.%.Y L =X",
"=XD.S.S.S.S.h X : < 3 4 4 a g l W T e.r.t.y.XX*XXXy.y.t.w.T P   ",
"=XS.A.A.B.A.y : G H H H H F H V P _ ;.7.0.q.'.*X[.q.q.0.7.^ Y L ",
"=XA.B.B.B.B., < H G G G F F F t ~ ( E  ...,.'.*X'.<.,...] ) Y P ",
"=XZ.B.B.B.B.2 : F F F F F F F r T ( `.*X*X*X*X*X*X*X*X*X`._ ~ L ",
"=XM.B.B.M.M.u + 3 4 4 p a d a w ~ ) 2.*X*X*X*X*X*X*X*X*X2.) T Y ",
"  f.x.x.x.z.m > ; = $ # @ X X 7 ^ ) / ! @.>.T.*XT.1.>.@.] _ ^ L ",
"  1 k.k.k.j.j.j.j.h.h.h.h.s.s.n ~ ^ ) o.3.5.'.*XT.9.6.4.-._ ^ & ",
"                                L ( ^ { +.3.T.*X].5.>.+.( ( T   ",
"=X                              * ( ( ~ ` O.T.*XT.$.+._ ( ( 5   ",
"=X=X=X=X=X=X=X=X=X=X=X=X=X=X=X=X  9 ) ( ~ ~ ` ` ` _ ^ ( ) q   =X",
"=X=X=X=X=X=X=X=X=X=X=X=X=X=X=X=X    6 ( ) ~ ^ ^ ^ ( -.) 8   =X=X",
"=X=X=X=X=X=X=X=X=X=X=X=X=X=X=X=X=X      q ~ ^ ) ) ~ q     =X=X=X",
"=X=X=X=X=X=X=X=X=X=X=X=X=X=X=X=X=X=X=X                  =X=X=X=X"
};
