/* XPM */
static char *metapackage_installer[] = {
/* columns rows colors chars-per-pixel */
"32 32 145 2",
"   c #010100",
".  c #0E0B07",
"X  c #1C160C",
"o  c #261E12",
"O  c #2C2214",
"+  c #352A19",
"@  c #392D1B",
"#  c #3E311D",
"$  c #403420",
"%  c #463922",
"&  c #4B3C23",
"*  c #005D00",
"=  c #1D540D",
"-  c #006600",
";  c #316915",
":  c #3D7B17",
">  c #3D7F18",
",  c #49761B",
"<  c #534226",
"1  c #58462A",
"2  c #5C492B",
"3  c #5E5223",
"4  c #624D2C",
"5  c #67512E",
"6  c #69542F",
"7  c #7C5D2D",
"8  c #6A5531",
"9  c #735B35",
"0  c #795F37",
"q  c #507D20",
"w  c #7C6133",
"e  c #7A6139",
"r  c #846432",
"t  c #896734",
"y  c #8C6A36",
"u  c #84693C",
"i  c #8B6C3A",
"p  c #916E36",
"a  c #8A733A",
"s  c #96733D",
"d  c #99763D",
"f  c #9B783F",
"g  c #856A40",
"h  c #896D42",
"j  c #8F7243",
"k  c #947646",
"l  c #997641",
"z  c #9D7A42",
"x  c #9D7C4A",
"c  c #A17E45",
"v  c #A07F48",
"b  c #008100",
"n  c #0C8406",
"m  c #018B00",
"M  c #0F8B07",
"N  c #029201",
"B  c #089403",
"V  c #009A00",
"C  c #0B9E00",
"Z  c #1D930D",
"A  c #238D0F",
"S  c #329F12",
"D  c #00A400",
"F  c #09A100",
"G  c #00AB00",
"H  c #14A303",
"J  c #12AE00",
"K  c #01B401",
"L  c #0AB700",
"P  c #00BA00",
"I  c #15B600",
"U  c #16A516",
"Y  c #25A000",
"T  c #3BA600",
"R  c #22B400",
"E  c #2DBE00",
"W  c #22B322",
"Q  c #36BA36",
"!  c #3AB93A",
"~  c #50AD00",
"^  c #47A419",
"/  c #57A919",
"(  c #6C8431",
")  c #00C100",
"_  c #2AC300",
"`  c #41C500",
"'  c #46CD00",
"]  c #61D500",
"[  c #45CF3C",
"{  c #44D03C",
"}  c #5FD83E",
"|  c #74DE3E",
" . c #7DA97C",
".. c #4CCC4C",
"X. c #6DDA5E",
"o. c #7CDF5E",
"O. c #72CE72",
"+. c #74D074",
"@. c #7BDB7B",
"#. c #838139",
"$. c #88E43E",
"%. c #9F804E",
"&. c #A38047",
"*. c #A5824A",
"=. c #A9864D",
"-. c #AB884F",
";. c #A88751",
":. c #AD8A52",
">. c #B18E56",
",. c #B08E58",
"<. c #B39057",
"1. c #B5925A",
"2. c #B9965E",
"3. c #BA9760",
"4. c #BD9A63",
"5. c #C19E66",
"6. c #C29F68",
"7. c #C5A26B",
"8. c #C8A66E",
"9. c #C3A372",
"0. c #CAA770",
"q. c #CCAA72",
"w. c #D0AE77",
"e. c #89E35E",
"r. c #8CCA7C",
"t. c #87E17D",
"y. c #8FE47D",
"u. c #81AB80",
"i. c #94B983",
"p. c #D3B586",
"a. c #D8B986",
"s. c #D7B988",
"d. c #D8BA89",
"f. c #97C280",
"g. c #96C880",
"h. c #9CC48C",
"j. c #99DD94",
"k. c #9CDF9C",
"l. c #A6CE99",
"z. c #96E096",
"x. c #9CE39C",
"c. c #B3DAAB",
"v. c #B5E7B5",
"b. c #FDFEFD",
"n. c None",
/* pixels */
"n.n.n.n.n.n.n.n.n.n.n.n.n.n.n.n.n.n.n.n.n.n.n.n.n.n.n.n.n.n.n.n.",
"n.7.a.d.d.d.s.s.d.d.s.s.s.s.s.s.p.p.p.p.p.p.p.p.p.p.p.9.n.n.n.n.",
"n.7.w.w.w.q.q.q.q.q.q.q.8.q.8.8.8.8.8.8.7.7.7.7.7.7.7.7.n.n.n.n.",
"n.8.q.q.q.0.0.q.8.8.7.8.7.7.7.7.7.6.7.5.7.5.5.5.4.4.4.4.n.n.n.n.",
"n.8.7.7.7.7.7.7.7.5.6.5.5.5.4.5.4.4.4.3.4.2.4.2.3.2.2.2.n.n.n.n.",
"n.5.5.5.4.5.4.4.4.4.4.2.3.3.2.2.2.2.2.2.1.1.1.1.1.1.<.,.1.n.n.n.",
"n.4.4.2.3.2.2.2.2.1.1.1.1.1.,.1.<.<.>.>.<.>.>.:.:.:.:.:.:.n.n.n.",
"1.1.1.1.1.1.<.>.1.>.>.>.>.>.:.:.:.:.:.:.:.-.=.=.=.=.=.=.=.n.n.n.",
"n.*.l l k l l z z f l l f f l f s f s s s l s s s s s s n.n.n.n.",
"n.n.*.*.&.*.*.&.v v c v v c v c v c z 4 z z z z z c c c n.n.n.n.",
"n.n.;.=.0 9 2 *.8 4 &.=.=.x 4 0 *.*.< X 2 *.d 5 < u c c n.n.n.n.",
"n.n.>.;.. 2 2 o # 9 @ -.x O e 8 @ =.u o e =.+ 9 u @ i =.n.n.n.n.",
"n.n.1.:.O <.1.. ;.<.@ ,.1 % 2 2 O j -.+ -.-.=.u 9 # 5 *.n.n.n.n.",
"n.n.3.1.$ 2.1.+ 1.1.% *.% e g g u x :.+ -.-.# < 9 2 5 =.n.n.n.n.",
"n.n.1.,.$ <.<.+ <.>.% x h & ;.%.@ k -.O %.*.O =.*.< 5 *.n.n.n.n.",
"n.n.1.:.1 ,.,.< >.:.4 x :.e @ # u =.=.6 = Z n m N n ; z n.n.n.n.",
"n.n.>.>.>.>.:.:.:.-.-.-.-.-.=.=.=.*.( M U +.x.v.k.O.U B n.n.n.n.",
"n.n.:.:.:.:.-.-.-.-.=.=.=.*.*.*.*.( N ! x.x.j.j.j.x.z.Q N n.n.n.",
"n.n.-.-.-.=.=.=.=.=.*.*.*.*.&.&.a B W @.t.y.c.b.c.y.t.@.W m n.n.",
"n.n.-.-.=.*.=.*.*.*.&.*.c c c c Z D ..X.o.e.l.b.l.e.o.X...D m n.",
"n.n.=.=.*.*.&.*.c c c c c c z a N L [ ..| $.h.b.h.$.| } { K N n.",
"n.n.=.c c c c c c c z z z f f q V K H S / / i.b.i./ ^ S H K V n.",
"n.n.c c c c z c z z z z d d s > V K u.b.b.b.b.b.b.b.b.b.u.P D b ",
"n.n.z c c f z f f d d d d s s : G P  .b.b.b.b.b.b.b.b.b.u.P D m ",
"n.n.c f f f f f f s s p s p y , G P H Y T ~ i.b.r.~ T Y H K G n.",
"n.n.i p y y t t t r r r r r 7 3 G K L _ ' ] f.b.i.] ' _ L K G n.",
"n.n.n.n.n.n.n.n.n.n.n.          b K G I E ` r.b.r.~ _ I G K V n.",
"n.n.n.n.n.n.n.n.n.n.n.n.n.n.n.n.n.K K G J R r.b.r.R I G K K n.n.",
"n.n.n.n.n.n.n.n.n.n.n.n.n.n.n.n.n.* P K G D F C F D G K P n.n.n.",
"n.n.n.n.n.n.n.n.n.n.n.n.n.n.n.n.n.n.n.K ) K G G G K ) P n.n.n.n.",
"n.n.n.n.n.n.n.n.n.n.n.n.n.n.n.n.n.n.n.n.- G K P P D - n.n.n.n.n.",
"n.n.n.n.n.n.n.n.n.n.n.n.n.n.n.n.n.n.n.n.n.n.n.n.n.n.n.n.n.n.n.n."
};
