/* XPM */
static char *metapackage_installer[] = {
/* columns rows colors chars-per-pixel */
"32 32 188 2",
"   c #020101",
".  c #080704",
"X  c #0D0A06",
"o  c #0F0D09",
"O  c #110E09",
"+  c #011A00",
"@  c #15110A",
"#  c #1A150D",
"$  c #1F180E",
"%  c #1D1911",
"&  c #261D0F",
"*  c #231D13",
"=  c #2C2214",
"-  c #2B251A",
";  c #322715",
":  c #342917",
">  c #322A1C",
",  c #3E311B",
"<  c #362D20",
"1  c #3C3324",
"2  c #41331D",
"3  c #4B3A1F",
"4  c #403626",
"5  c #423827",
"6  c #483A22",
"7  c #473B2A",
"8  c #4A3E2B",
"9  c #503F25",
"0  c #094403",
"q  c #1D450C",
"w  c #005B00",
"e  c #204C14",
"r  c #006200",
"t  c #1D6212",
"y  c #2D761B",
"u  c #3F7526",
"i  c #4C412E",
"p  c #524125",
"a  c #544329",
"s  c #5E4928",
"d  c #524532",
"f  c #564A36",
"g  c #5A4E38",
"h  c #634E2C",
"j  c #675926",
"k  c #67522F",
"l  c #6C532D",
"z  c #6D5631",
"x  c #6F5833",
"c  c #64553E",
"v  c #745B35",
"b  c #795F36",
"n  c #477B2C",
"m  c #7A6036",
"M  c #7C663F",
"N  c #6E5D44",
"B  c #6C6240",
"V  c #756346",
"C  c #766549",
"Z  c #796649",
"A  c #7D6B4E",
"S  c #7F6D50",
"D  c #876532",
"F  c #886733",
"G  c #8B6935",
"H  c #836739",
"J  c #85693C",
"K  c #8C6D3A",
"L  c #95733E",
"P  c #9B773F",
"I  c #9C783F",
"U  c #846C44",
"Y  c #947441",
"T  c #9E7A42",
"R  c #957748",
"E  c #806E51",
"W  c #827053",
"Q  c #A27E46",
"!  c #A07E49",
"~  c #008300",
"^  c #0B8707",
"/  c #018D00",
"(  c #098B05",
")  c #14830D",
"_  c #158C0D",
"`  c #019400",
"'  c #089303",
"]  c #009D00",
"[  c #099D06",
"{  c #1D9D00",
"}  c #228E0F",
"|  c #269B13",
" . c #369F12",
".. c #01A300",
"X. c #0AA100",
"o. c #01AB01",
"O. c #14A500",
"+. c #1BA303",
"@. c #14AE00",
"#. c #01B400",
"$. c #0BB000",
"%. c #01BB00",
"&. c #12B400",
"*. c #1CBD00",
"=. c #16A316",
"-. c #21A800",
";. c #34A300",
":. c #29B600",
">. c #24BC00",
",. c #2CBE00",
"<. c #38BC00",
"1. c #3BA119",
"2. c #21AF21",
"3. c #22B722",
"4. c #36B836",
"5. c #3ABA3A",
"6. c #4BAB00",
"7. c #4AA519",
"8. c #58A919",
"9. c #62B100",
"0. c #5C8A28",
"q. c #00C300",
"w. c #3CCD3C",
"e. c #46C700",
"r. c #42CA00",
"t. c #59CD00",
"y. c #5FD300",
"u. c #60D400",
"i. c #7ADC00",
"p. c #4AD13D",
"a. c #62D83E",
"s. c #74DE3E",
"d. c #7EA97C",
"f. c #4BCB4B",
"g. c #4BD04B",
"h. c #5DD55D",
"j. c #6CDA5D",
"k. c #78DD5D",
"l. c #72CD72",
"z. c #74D574",
"x. c #7AD57A",
"c. c #7CDC7C",
"v. c #84E13E",
"b. c #9A8143",
"n. c #A38047",
"m. c #A6824A",
"M. c #A9864D",
"N. c #AB884F",
"B. c #AD8A52",
"V. c #B18E56",
"C. c #B39057",
"Z. c #B5925A",
"A. c #B9965E",
"S. c #BA9760",
"D. c #BD9A63",
"F. c #C19E66",
"G. c #C29F68",
"H. c #C5A26B",
"J. c #C9A66E",
"K. c #C3A272",
"L. c #CAA770",
"P. c #CCAA72",
"I. c #D0AE77",
"U. c #82E15D",
"Y. c #93CD7C",
"T. c #84DF7D",
"R. c #84E07D",
"E. c #8AE27D",
"W. c #82AB80",
"Q. c #95B983",
"!. c #CFB384",
"~. c #D3B586",
"^. c #D6B887",
"/. c #D8B985",
"(. c #D7B988",
"). c #D8BA89",
"_. c #9AC380",
"`. c #9BCB80",
"'. c #9AC38C",
"]. c #95DD95",
"[. c #9CDE9C",
"{. c #A3CD99",
"}. c #97E197",
"|. c #9CE49C",
" X c #B1D9AB",
".X c #B5E7B5",
"XX c #FDFEFD",
"oX c None",
/* pixels */
"oXoXoXoXoXoXoXoXoXoXoXoXoXoXoXoXoXoXoXoXoXoXoXoXoXoXoXoXoXoXoXoX",
"oXH./.).).(.(.^.^.^.^.^.~.~.~.~.~.~.~.~.~.~.~.~.~.~.!.K.oXoXoXoX",
"oXH.I.I.P.P.P.P.P.P.P.P.L.L.L.J.J.J.J.J.H.H.H.H.H.H.H.H.oXoXoXoX",
"oXJ.L.L.L.J.J.J.J.J.H.H.H.H.H.H.H.H.G.G.F.F.F.D.D.D.D.D.oXoXoXoX",
"oXH.H.H.H.H.H.H.G.G.F.F.F.D.D.D.D.D.D.D.S.S.S.A.A.A.A.A.oXoXoXoX",
"oXF.F.D.D.D.D.D.D.D.D.S.S.A.A.A.A.A.A.A.Z.Z.Z.Z.Z.C.C.V.Z.oXoXoX",
"oXS.S.A.A.A.A.A.A.A.Z.Z.Z.Z.Z.C.C.V.V.V.V.V.B.B.B.B.B.B.B.oXoXoX",
"Z.Z.Z.Z.Z.C.C.V.V.V.V.V.V.B.B.B.B.B.B.B.B.N.N.M.M.M.M.m.m.oXoXoX",
"oXm.T T T T J 6 U U U U U U U U U U U U U M a l L L L Y oXoXoXoX",
"oXoXn.n.n.n.l X Z Z Z Z - * % # @ O .         s T T T Q oXoXoXoX",
"oXoXN.N.N.M.k O A A A c   $ ; 2 p h v m H K L Q n.n.Q n.oXoXoXoX",
"oXoXV.V.V.B.v X A A A C %           . O * b m.m.m.m.m.m.oXoXoXoX",
"oXoXZ.Z.C.C.R   C E E E E E A C N c g d <   , M.M.M.M.m.oXoXoXoX",
"oXoXA.A.A.Z.C.  f W W E E E E E E S A A A c . x M.M.M.M.oXoXoXoX",
"oXoXZ.Z.Z.Z.C.a o Z E E E S A A A A A A A A 1 @ m.m.m.m.oXoXoXoX",
"oXoXC.C.V.V.V.B.# o f V A A A A A A A Z n _ ( / ' } 0.b.oXoXoXoX",
"oXoXV.V.B.B.B.B.m.9       . O # % * e ^ =.z.[..X|.l.=.' oXoXoXoX",
"oXoXB.B.B.B.B.N.N.M.! Y J m z h p q / 5.}.|.].].].|.].4./ oXoXoX",
"oXoXB.N.N.M.J p 6 , : = * # O . + / 3.c.c.T. XXX XE.R.x.2.` oXoX",
"oXoXM.M.M.m.p X - > < 1 4 7 i d ) ] g.h.j.k.{.XX{.U.k.j.f.] / oX",
"oXoXm.m.m.m.2 - Z Z Z Z Z C C B / #.w.p.a.s.'.XX'.v.s.a.p.o.` oX",
"oXoXn.n.Q Q : > Z C C V V V V u ] #.[ | 1.7.Q.XXQ.8.7. .+.%.` oX",
"oXoXQ Q Q T , - V V V V V V V y ] #.W.XXXXXXXXXXXXXXXXXXW.#...~ ",
"oXoXT T T T 3 O < 1 1 5 7 8 8 t ..%.d.XXXXXXXXXXXXXXXXXXd.%.] ` ",
"oXoXT I P P l ; = & $ # @ X X 0 o.#.X.{ ;.6.Q.XXQ.9.6.;.-.#...oX",
"oXoXK K K G G G G F F F F D D j o.o.#.>.r.u._.XX_.i.y.r.*.#.o.oX",
"oXoXoXoXoXoXoXoXoXoXoXoXoXoXoX  ~ #.o.&.,.e.`.XX`.t.e.,.#.#.` oX",
"oXoXoXoXoXoXoXoXoXoXoXoXoXoXoXoXoX#.#...@.:.Y.XXY.<.>.#.#.#.oXoX",
"oXoXoXoXoXoXoXoXoXoXoXoXoXoXoXoXoXw %.#...X.O.O.O.$.o.#.%.oXoXoX",
"oXoXoXoXoXoXoXoXoXoXoXoXoXoXoXoXoXoXoX#.%...o.o.o.#.q.%.oXoXoXoX",
"oXoXoXoXoXoXoXoXoXoXoXoXoXoXoXoXoXoXoXoXr ..o.%.%...r oXoXoXoXoX",
"oXoXoXoXoXoXoXoXoXoXoXoXoXoXoXoXoXoXoXoXoXoXoXoXoXoXoXoXoXoXoXoX"
};
