/* XPM */
static char *metapackage_installer___[] = {
/* columns rows colors chars-per-pixel */
"16 16 180 2",
"   c #14100A",
".  c #1B160D",
"X  c #2A2114",
"o  c #2D2619",
"O  c #312818",
"+  c #352B1B",
"@  c #362C1B",
"#  c #372D1D",
"$  c #382D1C",
"%  c #382D1E",
"&  c #2E3118",
"*  c #3B301D",
"=  c #3F321E",
"-  c #3E321F",
";  c #463720",
":  c #493A23",
">  c #4A3B23",
",  c #483D2C",
"<  c #503D20",
"1  c #3F4519",
"2  c #15660B",
"3  c #097F05",
"4  c #574323",
"5  c #5E4825",
"6  c #514029",
"7  c #56452D",
"8  c #59462A",
"9  c #5A482F",
"0  c #5D4A2C",
"q  c #554733",
"w  c #5D4C30",
"e  c #5A4C35",
"r  c #5E503C",
"t  c #69532F",
"y  c #72572D",
"u  c #625034",
"i  c #605139",
"p  c #705A38",
"a  c #416026",
"s  c #537B32",
"d  c #676A3E",
"f  c #695A42",
"g  c #726147",
"h  c #776547",
"j  c #796643",
"k  c #7E6A47",
"l  c #746448",
"z  c #786548",
"x  c #786649",
"c  c #78664A",
"v  c #7C694D",
"b  c #7C6A4D",
"n  c #7D6A4E",
"m  c #7E6B4E",
"M  c #7E6C4F",
"N  c #96743C",
"B  c #98753D",
"V  c #98773F",
"C  c #927444",
"Z  c #997740",
"A  c #9F7B42",
"S  c #9D7B45",
"D  c #9D7C45",
"F  c #806E51",
"G  c #816F52",
"H  c #A07C44",
"J  c #A27F47",
"K  c #008600",
"L  c #008700",
"P  c #008A00",
"I  c #008B00",
"U  c #009100",
"Y  c #009400",
"T  c #009500",
"R  c #178F13",
"E  c #06A000",
"W  c #07A300",
"Q  c #02A701",
"!  c #00A900",
"~  c #00AC00",
"^  c #00AE00",
"/  c #01AE00",
"(  c #00AF00",
")  c #0AAB00",
"_  c #00B200",
"`  c #10B700",
"'  c #16B60E",
"]  c #10AE10",
"[  c #1FB01F",
"{  c #2BBA00",
"}  c #28BD00",
"|  c #38B637",
" . c #44BE00",
".. c #4F8C23",
"X. c #4ABB2C",
"o. c #55BF28",
"O. c #47A43E",
"+. c #62C700",
"@. c #7DC93E",
"#. c #7BB959",
"$. c #46CD46",
"%. c #61CF61",
"&. c #6DDA6D",
"*. c #70D86A",
"=. c #7FDA7F",
"-. c #928440",
";. c #A48048",
":. c #A48149",
">. c #A58249",
",. c #A8854C",
"<. c #A9854D",
"1. c #AA874E",
"2. c #AA874F",
"3. c #A9884F",
"4. c #AA8752",
"5. c #AB8850",
"6. c #AC8951",
"7. c #AD8A52",
"8. c #AE8A52",
"9. c #AE8B52",
"0. c #AF8B53",
"q. c #AF8C54",
"w. c #B08D54",
"e. c #B18E56",
"r. c #B28F57",
"t. c #B39058",
"y. c #B49159",
"u. c #B5925A",
"i. c #B6935B",
"p. c #B6935C",
"a. c #B7945C",
"s. c #B8955D",
"d. c #B8955E",
"f. c #BA975F",
"g. c #BB9860",
"h. c #BC9961",
"j. c #BD9A62",
"k. c #BE9B63",
"l. c #BF9C65",
"z. c #C09D65",
"x. c #C09D66",
"c. c #C19E67",
"v. c #C19F67",
"b. c #C09E68",
"n. c #C2A068",
"m. c #C3A169",
"M. c #C3A16A",
"N. c #C4A26A",
"B. c #C6A36B",
"V. c #C1A16E",
"C. c #C7A46C",
"Z. c #C8A56E",
"A. c #C9A66F",
"S. c #C3A572",
"D. c #C4A573",
"F. c #C5A573",
"G. c #C4A673",
"H. c #C6A674",
"J. c #C6A675",
"K. c #C7A876",
"L. c #CAA870",
"P. c #CBA971",
"I. c #CCAA72",
"U. c #C8A875",
"Y. c #C9A975",
"T. c #C8A976",
"R. c #CDAB74",
"E. c #8FC040",
"W. c #8DD282",
"Q. c #99E199",
"!. c #BBD6BA",
"~. c #CDE9BA",
"^. c #D9ECC0",
"/. c #D5EBC9",
"(. c #D7EED5",
"). c #F9FCF8",
"_. c #FAFCF8",
"`. c #FCFDFA",
"'. c #FEFFFE",
"]. c None",
/* pixels */
"].Y.U.T.T.K.J.H.G.F.D.S.D.V.].].",
"M.R.I.P.L.A.Z.C.B.N.m.n.c.b.].].",
"z.n.v.x.l.k.j.h.g.f.d.a.i.u.].].",
"s.s.i.u.y.t.r.e.w.0.8.6.5.2.3.].",
"].D S 8 j k u w 9 7 6 ; V Z ].].",
"].7.6.- v c   . X = t J :.:.].].",
"].p.u.p r G F n l f , 0 <.,.].].",
"].y.t.4.o g m M m b s 2 ..-.].].",
"].q.9.6.C : * $ & R %.Q.=.| ].].",
"].1.<.> + + # % 3 $.&.(.W.*.] ].",
"].>.;.@ x z h d Q [ X./.#.o.' I ",
"].H A O q e i a _ !.).'.`._.O.U ",
"].B N y 5 4 < 1 ( )  .^.E.+.` T ",
"].].].].].].].].Y ~ { ~.@.} / ].",
"].].].].].].].].].! ! E W ^ L ].",
"].].].].].].].].].].].P K ].].]."
};
