/* XPM */
static char *metapackage-installer-16[] = {
/* columns rows colors chars-per-pixel */
"16 16 195 2",
"   c black",
".  c #14100A",
"X  c #1B160D",
"o  c #003A00",
"O  c #003B00",
"+  c #2A2114",
"@  c #2D2619",
"#  c #2E3118",
"$  c #312818",
"%  c #352B1B",
"&  c #362C1B",
"*  c #372D1D",
"=  c #382D1C",
"-  c #382D1E",
";  c #3B301D",
":  c #3E321F",
">  c #3F321E",
",  c #006A00",
"<  c #007700",
"1  c #097F05",
"2  c #15660B",
"3  c #3F4519",
"4  c #463720",
"5  c #493A23",
"6  c #4A3B23",
"7  c #483D2C",
"8  c #503D20",
"9  c #544123",
"0  c #574323",
"q  c #514029",
"w  c #56452D",
"e  c #59462A",
"r  c #5E4825",
"t  c #5A482F",
"y  c #5D4A2C",
"u  c #554733",
"i  c #5A4C35",
"p  c #5D4C30",
"a  c #5E503C",
"s  c #416026",
"d  c #537B32",
"f  c #69532F",
"g  c #625034",
"h  c #605139",
"j  c #72572D",
"k  c #705A38",
"l  c #676A3E",
"z  c #695A42",
"x  c #726147",
"c  c #776547",
"v  c #746448",
"b  c #796643",
"n  c #786548",
"m  c #786649",
"M  c #78664A",
"N  c #7E6A47",
"B  c #7C694D",
"V  c #7C6A4D",
"C  c #7D6A4E",
"Z  c #7E6B4E",
"A  c #7E6C4F",
"S  c #008600",
"D  c #008700",
"F  c #008A00",
"G  c #008B00",
"H  c #009100",
"J  c #009400",
"K  c #009500",
"L  c #178F13",
"P  c #02A701",
"I  c #06A000",
"U  c #07A300",
"Y  c #00A900",
"T  c #00AC00",
"R  c #00AE00",
"E  c #00AF00",
"W  c #01AE00",
"Q  c #0AAB00",
"!  c #00B200",
"~  c #10AE10",
"^  c #10B700",
"/  c #16B60E",
"(  c #1FB01F",
")  c #2BBA00",
"_  c #28BD00",
"`  c #38B637",
"'  c #4F8C23",
"]  c #44BE00",
"[  c #47A43E",
"{  c #4ABB2C",
"}  c #55BF28",
"|  c #7BB959",
" . c #62C700",
".. c #7DC93E",
"X. c #46CD46",
"o. c #61CF61",
"O. c #6DDA6D",
"+. c #70D86A",
"@. c #7FDA7F",
"#. c #8B6C3A",
"$. c #96743C",
"%. c #98753D",
"&. c #98773F",
"*. c #806E51",
"=. c #816F52",
"-. c #927444",
";. c #997740",
":. c #9F7B42",
">. c #9D7B45",
",. c #9D7C45",
"<. c #A07C44",
"1. c #A17E45",
"2. c #A27F47",
"3. c #928440",
"4. c #A48048",
"5. c #A48149",
"6. c #A58249",
"7. c #A6834B",
"8. c #A5844D",
"9. c #A8854C",
"0. c #A9854D",
"q. c #AA874E",
"w. c #AA874F",
"e. c #A9884F",
"r. c #AA8752",
"t. c #AB8850",
"y. c #AC8951",
"u. c #AD8A52",
"i. c #AE8A52",
"p. c #AE8B52",
"a. c #AF8B53",
"s. c #AF8C54",
"d. c #B08D54",
"f. c #B18D55",
"g. c #B18E56",
"h. c #B28F57",
"j. c #B39057",
"k. c #B39058",
"l. c #B49159",
"z. c #B5925A",
"x. c #B6935B",
"c. c #B6935C",
"v. c #B7945C",
"b. c #B8955D",
"n. c #B8955E",
"m. c #BA975F",
"M. c #B89762",
"N. c #BB9860",
"B. c #BC9961",
"V. c #BD9A62",
"C. c #BE9B63",
"Z. c #BF9C65",
"A. c #8FC040",
"S. c #C09D65",
"D. c #C09D66",
"F. c #C19E67",
"G. c #C19F67",
"H. c #C09E68",
"J. c #C2A068",
"K. c #C3A169",
"L. c #C3A16A",
"P. c #C1A16E",
"I. c #C4A169",
"U. c #C4A26A",
"Y. c #C6A36B",
"T. c #C7A46C",
"R. c #C8A56E",
"E. c #C9A66F",
"W. c #C3A572",
"Q. c #C4A573",
"!. c #C5A573",
"~. c #C4A673",
"^. c #C6A674",
"/. c #C6A675",
"(. c #C7A876",
"). c #CAA870",
"_. c #CBA971",
"`. c #C8A875",
"'. c #C9A975",
"]. c #C8A976",
"[. c #CCAA72",
"{. c #CDAB74",
"}. c #8DD282",
"|. c #99E199",
" X c #BBD6BA",
".X c #CDE9BA",
"XX c #D5EBC9",
"oX c #D9ECC0",
"OX c #D7EED5",
"+X c #F9FCF8",
"@X c #FAFCF8",
"#X c #FCFDFA",
"$X c #FEFFFE",
"%X c gray100",
"&X c None",
/* pixels */
"I.'.'.'.'././././.~.~.W.~.P.&X&X",
"L.{._._._.).T.T.T.I.L.L.D.D./.&X",
"D.L.H.D.Z.B.B.B.N.m.n.x.z.z.M.&X",
"v.n.x.z.z.k.k.j.s.s.u.u.u.w.e.&X",
"8.,.>.e b N g y t w q 4 $.;.#.&X",
"j.u.u.: C v . X + : f 2.6.6.&X&X",
"n.x.z.k a =.=.C c z 7 y 7.w.&X&X",
"x.l.j.r.@ x C A C B d 2 ' 3.&X&X",
"d.a.u.u.-.6 ; - # L o.|.@.` H &X",
"w.w.w.6 % % & - 1 X.O.OX}.O.~ J ",
"7.6.2.& m m c l P ( { XX| } / G ",
"2.<.:.$ u i h s !  X+X%X#X+X[ H ",
"0 $.$.j r 0 8 3 W Q ] .XA. .^ J ",
"                J W ) .X.._ W < ",
"&X&X&X&X&X&X&X&XO P P U U W D &X",
"&X&X&X&X&X&X&X&X&X  , G D O &X&X"
};
